<?xml version="1.0" standalone="no"?><!DOCTYPE svg PUBLIC "-//W3C//DTD SVG 1.1//EN" "http://www.w3.org/Graphics/SVG/1.1/DTD/svg11.dtd" ><svg xmlns="http://www.w3.org/2000/svg"><metadata></metadata><defs><font id="FontForge 2.0 : Ionicons : 4-12-2014" horiz-adv-x="512"><font-face font-family="Ionicons" font-weight="500" font-stretch="normal" units-per-em="512" panose-1="2 0 6 3 0 0 0 0 0 0" ascent="448" descent="-64" x-height="0" bbox="0 -64 512 448" underline-thickness="25" underline-position="-64" unicode-range="U+f100-f4f7" /><missing-glyph horiz-adv-x="187" d="M17 0 l0 341 l136 0 l0 -341 l-136 0 ZM34 17 l102 0 l0 307 l-102 0 l0 -307 Z" /><glyph glyph-name=".null" unicode="" d="" /><glyph glyph-name="nonmarkingreturn" unicode="" d="" /><glyph glyph-name="uniF100" unicode="&#xf100;" d="M445 26 q6 -11 2 -18 q-5 -8 -14 -8 l-418 0 q-9 0 -14 8 q-4 7 2 18 l207 349 q5 9 14 9 q9 0 14 -9 l207 -349 ZM256 48 l0 48 l-64 0 l0 -48 l64 0 ZM256 128 l0 144 l-64 0 l0 -144 l64 0 Z" /><glyph glyph-name="uniF101" unicode="&#xf101;" d="M128 -32 l-128 0 l0 96 l128 0 l0 -96 ZM112 128 l-96 0 l-16 288 l128 0 l-16 -288 Z" /><glyph glyph-name="uniF102" unicode="&#xf102;" d="M224 140 l-128 116 l80 0 l0 96 l96 0 l0 -96 l80 0 l-128 -116 ZM433 151 q18 -10 15 -32 l-9 -67 q-3 -20 -28 -20 l-374 0 q-25 0 -28 20 l-9 67 q-3 22 14 32 l72 55 l42 0 l-62 -62 l50 0 q4 0 6 -3 l18 -45 l168 0 l18 45 q2 3 5 3 l51 0 l-62 62 l42 0 l71 -55 Z" /><glyph glyph-name="uniF103" unicode="&#xf103;" d="M192 0 l-192 192 l112 0 l0 192 l160 0 l0 -192 l112 0 l-192 -192 Z" /><glyph glyph-name="uniF104" unicode="&#xf104;" d="M3 263 q-3 3 -3 9 q0 7 5 11.5 q5 4.5 12 4.5 l286 0 q7 0 12 -4.5 q5 -4.5 5 -11.5 q0 -5 -3 -8 l-2 -3 l-136 -156 q-9 -9 -19 -9 q-10 0 -19 9 l-136 156 l-2 2 Z" /><glyph glyph-name="uniF105" unicode="&#xf105;" d="M265 125 l-105 -100 q-9 -9 -23 -9 q-13 0 -22 9 l-106 100 q-9 9 -9 21.5 q0 12.5 9 21.5 q9 9 23 9 q14 0 23 -9 l50 -48 l0 217 q0 13 9.5 22 q9.5 9 22.5 9 q13 0 22.5 -9 q9.5 -9 9.5 -22 l0 -217 l50 48 q9 9 23 9 q14 0 23 -9 q9 -9 9 -21.5 q0 -12.5 -9 -21.5 Z" /><glyph glyph-name="uniF106" unicode="&#xf106;" d="M0 192 l192 192 l0 -112 l192 0 l0 -160 l-192 0 l0 -112 l-192 192 Z" /><glyph glyph-name="uniF107" unicode="&#xf107;" d="M167 349 q3 3 9 3 q7 0 11.5 -5 q4.5 -5 4.5 -12 l0 -286 q0 -7 -4.5 -12 q-4.5 -5 -11.5 -5 q-6 0 -9 3 l-2 2 l-156 136 q-9 9 -9 19 q0 10 9 19 l156 136 l2 2 Z" /><glyph glyph-name="uniF108" unicode="&#xf108;" d="M109 320 q9 9 22 9 q13 0 22 -9 q9 -9 9 -23 q0 -14 -9 -23 l-49 -50 l217 0 q13 0 22 -9.5 q9 -9.5 9 -22.5 q0 -13 -9 -22.5 q-9 -9.5 -22 -9.5 l-217 0 l48 -50 q9 -9 9 -23 q0 -14 -9 -23 q-9 -9 -21.5 -9 q-12.5 0 -21.5 9 l-100 106 q-9 9 -9 22 q0 14 9 23 l100 105 Z" /><glyph glyph-name="uniF109" unicode="&#xf109;" d="M384 192 l-192 -192 l0 112 l-192 0 l0 160 l192 0 l0 112 l192 -192 Z" /><glyph glyph-name="uniF10A" unicode="&#xf10a;" d="M25 35 q-3 -3 -9 -3 q-7 0 -11.5 5 q-4.5 5 -4.5 12 l0 286 q0 7 4.5 12 q4.5 5 11.5 5 q5 0 8 -3 l3 -2 l156 -136 q9 -9 9 -19 q0 -10 -9 -19 l-156 -136 l-2 -2 Z" /><glyph glyph-name="uniF10B" unicode="&#xf10b;" d="M243 320 l100 -105 q9 -9 9 -23 q0 -13 -9 -22 l-100 -106 q-9 -9 -21.5 -9 q-12.5 0 -21.5 9 q-9 9 -9 23 q0 14 9 23 l48 50 l-217 0 q-13 0 -22 9.5 q-9 9.5 -9 22.5 q0 13 9 22.5 q9 9.5 22 9.5 l217 0 l-49 50 q-9 9 -9 23 q0 14 9 23 q9 9 22 9 q13 0 22 -9 Z" /><glyph glyph-name="uniF10C" unicode="&#xf10c;" d="M192 384 l192 -192 l-112 0 l0 -192 l-160 0 l0 192 l-112 0 l192 192 Z" /><glyph glyph-name="uniF10D" unicode="&#xf10d;" d="M317 121 q3 -3 3 -9 q0 -7 -5 -11.5 q-5 -4.5 -12 -4.5 l-286 0 q-7 0 -12 4.5 q-5 4.5 -5 11.5 q0 5 3 8 l2 3 l136 156 q9 9 19 9 q10 0 19 -9 l136 -156 l2 -2 Z" /><glyph glyph-name="uniF10E" unicode="&#xf10e;" d="M9 259 l105 100 q9 9 23 9 q13 0 22 -9 l106 -100 q9 -9 9 -21.5 q0 -12.5 -9 -21.5 q-9 -9 -23 -9 q-14 0 -23 9 l-50 48 l0 -217 q0 -13 -9.5 -22 q-9.5 -9 -22.5 -9 q-13 0 -22.5 9 q-9.5 9 -9.5 22 l0 217 l-50 -49 q-9 -9 -23 -9 q-14 0 -23 9 q-9 9 -9 22 q0 13 9 22 Z" /><glyph glyph-name="uniF10F" unicode="&#xf10f;" d="M422 41 q-36 -37 -85 -55 q-49 -18 -105 -18 q-50 0 -95 17 q-43 16 -73 46 q-31 31 -47 71 q-17 43 -17 90 q0 48 18 89 q18 41 50 71 q29 28 74 47 q43 17 90 17 q42 0 81 -12 q39 -12 69 -36 q30 -24 48 -60 q18 -36 18 -85 q0 -38 -10 -64 q-11 -29 -27 -46 q-18 -19 -38 -28 q-23 -10 -45 -10 q-24 0 -39 12 q-15 12 -15 29 l-3 0 q-9 -15 -28 -28 q-19 -13 -46 -13 q-41 0 -64 27 q-23 28 -23 71 q0 26 9 50 q9 25 24 44 q14 18 38 31 q23 12 49 12 q20 0 38 -10 q16 -10 21 -24 l1 0 l5 24 l54 0 l-24 -113 q-2 -12 -3 -19 q-2 -14 -2 -19 q0 -11 4 -18 q4 -7 15 -7 q24 0 39 26 q16 27 16 68 q0 36 -12 64 q-11 25 -34 47 q-21 20 -52 29 q-30 9 -65 9 q-40 0 -70 -13 q-31 -13 -54 -38 q-24 -26 -35 -56 q-13 -34 -13 -69 q0 -42 13 -72 q14 -32 37 -54 q25 -23 57 -35 q33 -12 72 -12 q47 0 85 16 q32 13 65 43 l34 -36 ZM231 260 q-16 0 -25 -8 q-13 -11 -19 -22 q-6 -10 -11 -28 q-4 -13 -4 -30 q0 -10 1 -16 q1 -8 6 -15 q4 -6 12 -11 q8 -5 19 -5 q15 0 28 8 q10 6 19 21 q9 14 11 26 q3 15 3 27 q0 13 -1 19 q-1 7 -7 17 q-5 7 -12 12 q-8 5 -20 5 Z" /><glyph glyph-name="uniF110" unicode="&#xf110;" d="M416 288 l32 -320 l-448 0 l32 320 l64 0 l0 4 q0 51 36.5 87.5 q36.5 36.5 87.5 36.5 l8 0 q51 0 87.5 -36.5 q36.5 -36.5 36.5 -87.5 l0 -4 l64 0 ZM128 292 l0 -4 l192 0 l0 4 q0 38 -27 65 q-27 27 -65 27 l-8 0 q-38 0 -65 -27 q-27 -27 -27 -65 ZM36 0 l376 0 l-25 256 l-35 0 l0 -36 q16 -10 16 -28 q0 -14 -9 -23 q-9 -9 -23 -9 q-14 0 -23 9 q-9 9 -9 23 q0 18 16 28 l0 36 l-192 0 l0 -36 q16 -10 16 -28 q0 -14 -9 -23 q-9 -9 -23 -9 q-14 0 -23 9 q-9 9 -9 23 q0 18 16 28 l0 36 l-35 0 l-25 -256 Z" /><glyph glyph-name="uniF111" unicode="&#xf111;" d="M10 64 q-10 0 -10 10 l0 236 q0 10 10 10 l381 0 q10 0 10 -10 l0 -54 l37 0 q10 0 10 -10 l0 -108 q0 -10 -10 -10 l-37 0 l0 -54 q0 -10 -10 -10 l-381 0 ZM225 288 l-100 -111 l61 0 l-27 -81 l100 111 l-61 0 l27 81 Z" /><glyph glyph-name="uniF112" unicode="&#xf112;" d="M438 256 q10 0 10 -10 l0 -108 q0 -10 -10 -10 l-37 0 l0 -54 q0 -10 -10 -10 l-381 0 q-10 0 -10 10 l0 236 q0 10 10 10 l381 0 q10 0 10 -10 l0 -54 l37 0 ZM416 160 l0 64 l-15 0 l-32 0 l0 32 l0 32 l-337 0 l0 -192 l337 0 l0 32 l0 32 l32 0 l15 0 Z" /><glyph glyph-name="uniF113" unicode="&#xf113;" d="M438 256 q10 0 10 -10 l0 -108 q0 -10 -10 -10 l-37 0 l0 -54 q0 -10 -10 -10 l-381 0 q-10 0 -10 10 l0 236 q0 10 10 10 l381 0 q10 0 10 -10 l0 -54 l37 0 Z" /><glyph glyph-name="uniF114" unicode="&#xf114;" d="M438 256 q10 0 10 -10 l0 -108 q0 -10 -10 -10 l-37 0 l0 -54 q0 -10 -10 -10 l-381 0 q-10 0 -10 10 l0 236 q0 10 10 10 l381 0 q10 0 10 -10 l0 -54 l37 0 ZM416 160 l0 64 l-15 0 l-32 0 l0 32 l0 32 l-81 0 l32 -192 l49 0 l0 32 l0 32 l32 0 l15 0 Z" /><glyph glyph-name="uniF115" unicode="&#xf115;" d="M10 64 q-10 0 -10 10 l0 236 q0 10 10 10 l381 0 q10 0 10 -10 l0 -54 l37 0 q10 0 10 -10 l0 -108 q0 -10 -10 -10 l-37 0 l0 -54 q0 -10 -10 -10 l-381 0 ZM369 288 l-209 0 l32 -192 l177 0 l0 32 l0 32 l32 0 l15 0 l0 64 l-15 0 l-32 0 l0 32 l0 32 Z" /><glyph glyph-name="uniF116" unicode="&#xf116;" d="M12 304 q16 16 19 12 l68 -65 l0 0 q3 -4 5.5 -5 q2.5 -1 4.5 2 l0 156 l0 2 q0 10 12 10 q5 0 9 -4 q117 -113 122 -117 q8 -7 1 -14 l-84 -81 q-4 -4 -4 -8 l4 -8 l84 -81 q7 -7 -1 -14 l-122 -117 q-4 -4 -9 -4 q-12 0 -12 10 l0 2 l0 156 q-2 3 -4.5 1.5 q-2.5 -1.5 -5.5 -4.5 l0 -1 l-68 -64 q-3 -4 -19 12 q-14 14 -11 18 l90 86 q4 3 4 8 l-4 8 q-89 85 -90 86 q-3 4 11 18 ZM152 328 l0 -79 q2 -4 4.5 -3 q2.5 1 5.5 4 l30 30 q3 3 3 7 q0 4 -3 7 l-30 30 q-10 10 -10 4 ZM152 135 l0 -79 q0 -6 10 4 l30 30 q3 3 3 7 q0 4 -3 7 l-30 30 q-3 3 -5.5 4 q-2.5 1 -4.5 -3 Z" /><glyph glyph-name="uniF117" unicode="&#xf117;" d="M135 329 q-9 -9 -23 -9 q-14 0 -23 9 q-9 9 -9 23 l0 32 q0 14 9 23 q9 9 23 9 q14 0 23 -9 q9 -9 9 -23 l0 -32 q0 -14 -9 -23 ZM359 329 q-9 -9 -23 -9 q-14 0 -23 9 q-9 9 -9 23 l0 32 q0 14 9 23 q9 9 23 9 q14 0 23 -9 q9 -9 9 -23 l0 -32 q0 -14 -9 -23 ZM440 384 q8 0 8 -8 l0 -400 q0 -8 -8 -8 l-432 0 q-8 0 -8 8 l0 400 q0 8 8 8 l56 0 l0 -41 q0 -16 14.5 -27.5 q14.5 -11.5 33.5 -11.5 q19 0 33.5 11.5 q14.5 11.5 14.5 27.5 l0 41 l128 0 l0 -41 q0 -16 15 -27.5 q15 -11.5 34 -11.5 q18 0 32.5 11.5 q14.5 11.5 14.5 27.5 l0 41 l56 0 ZM400 16 l0 256 l-352 0 l0 -256 l352 0 Z" /><glyph glyph-name="uniF118" unicode="&#xf118;" d="M382 301 q14 0 24 -9.5 q10 -9.5 10 -23.5 l0 -202 q0 -14 -10 -24 q-10 -10 -24 -10 l-348 0 q-14 0 -24 10 q-10 10 -10 24 l0 202 q0 14 10 23.5 q10 9.5 24 9.5 l69 0 l39 40 q9 11 25 11 l84 0 q13 0 23 -10 l0 0 l41 -41 l67 0 ZM143 109.5 q27 -27.5 65 -27.5 q38 0 65 27.5 q27 27.5 27 65.5 q0 38 -27 65.5 q-27 27.5 -65 27.5 q-38 0 -65 -27.5 q-27 -27.5 -27 -65.5 q0 -38 27 -65.5 ZM362 262 q0 -14 14 -14 q14 0 14 14 q0 14 -14 14 q-14 0 -14 -14 ZM158.5 224.5 q20.5 20.5 49.5 20.5 q29 0 49.5 -20.5 q20.5 -20.5 20.5 -49.5 q0 -29 -20.5 -49.5 q-20.5 -20.5 -49.5 -20.5 q-29 0 -49.5 20.5 q-20.5 20.5 -20.5 49.5 q0 29 20.5 49.5 Z" /><glyph glyph-name="uniF119" unicode="&#xf119;" d="M420 352 q12 0 20 -8 q8 -8 8 -20 l0 -264 q0 -12 -8 -20 q-8 -8 -20 -8 l-392 0 q-12 0 -20 8 q-8 8 -8 20 l0 0 l0 264 l0 0 q0 12 8 20 q8 8 20 8 l392 0 ZM45 320 q-11 0 -13 -12 l0 -20 l384 0 l0 20 q-2 12 -13 12 l-358 0 ZM403 64 q11 0 13 12 l0 116 l-384 0 l0 -116 q2 -12 13 -12 l358 0 ZM64 128 l0 16 l192 0 l0 -16 l-192 0 ZM64 96 l0 16 l96 0 l0 -16 l-96 0 ZM320 96 l0 48 l64 0 l0 -48 l-64 0 Z" /><glyph glyph-name="uniF11A" unicode="&#xf11a;" d="M76 48 q-32 0 -54 20.5 q-22 20.5 -22 50.5 l0 209 q0 30 22 51 q22 21 54 21 l264 0 q32 0 54 -21 q22 -21 22 -51 l0 -209 q0 -30 -22 -50.5 q-22 -20.5 -54 -20.5 l-4 0 l0 -64 q-79 54 -86 59 q-7 5 -21 5 l-153 0 ZM327 247 q-9 9 -23 9 q-14 0 -23 -9 q-9 -9 -9 -23 q0 -14 9 -23 q9 -9 23 -9 q14 0 23 9 q9 9 9 23 q0 14 -9 23 ZM231 247 q-9 9 -23 9 q-14 0 -23 -9 q-9 -9 -9 -23 q0 -14 9 -23 q9 -9 23 -9 q14 0 23 9 q9 9 9 23 q0 14 -9 23 ZM135 247 q-9 9 -23 9 q-14 0 -23 -9 q-9 -9 -9 -23 q0 -14 9 -23 q9 -9 23 -9 q14 0 23 9 q9 9 9 23 q0 14 -9 23 Z" /><glyph glyph-name="uniF11B" unicode="&#xf11b;" d="M76 48 q-32 0 -54 20.5 q-22 20.5 -22 50.5 l0 209 q0 30 22 51 q22 21 54 21 l264 0 q32 0 54 -21 q22 -21 22 -51 l0 -209 q0 -30 -22 -50.5 q-22 -20.5 -54 -20.5 l-4 0 l0 -64 q-79 54 -86 59 q-7 5 -21 5 l-153 0 Z" /><glyph glyph-name="uniF11C" unicode="&#xf11c;" d="M246 82 l26 -18 q-3 -15 -18 -23.5 q-15 -8.5 -34 -8.5 l-90 0 q-7 0 -13 -3 l-53 -45 l0 48 l-16 0 q-20 0 -34 11.5 q-14 11.5 -14 29.5 l0 129 q0 19 13.5 32 q13.5 13 32.5 13 l2 0 l0 -101 q0 -25 19 -42 q19 -17 45 -17 l117 0 q9 0 17 -5 ZM353 400 q26 0 44.5 -17.5 q18.5 -17.5 18.5 -42.5 l0 -168 q0 -25 -18.5 -42.5 q-18.5 -17.5 -44.5 -17.5 l-17 0 l0 -64 l-75 60 q-4 4 -17 4 l-101 0 q-26 0 -44.5 17.5 q-18.5 17.5 -18.5 42.5 l0 98 l0 70 q0 26 15 43 q15 17 41 17 l217 0 Z" /><glyph glyph-name="uniF11D" unicode="&#xf11d;" d="M208 -1 q-86 0 -147 58.5 q-61 58.5 -61 141.5 q0 83 61 142 q61 59 147 59 q86 0 147 -59 q61 -59 61 -142 q0 -59 -33 -108 q-1 -1 -2 -2 q-1 -1 -1 -2 q-4 -8 -4 -15 l22 -88 l-84 31 q-4 2 -12 2 q-3 0 -11 -2 q-1 0 -1 -0.5 q0 -0.5 -1 -0.5 q-37 -15 -81 -15 ZM327 215 q-9 9 -23 9 q-14 0 -23 -9 q-9 -9 -9 -23 q0 -14 9 -23 q9 -9 23 -9 q14 0 23 9 q9 9 9 23 q0 14 -9 23 ZM231 215 q-9 9 -23 9 q-14 0 -23 -9 q-9 -9 -9 -23 q0 -14 9 -23 q9 -9 23 -9 q14 0 23 9 q9 9 9 23 q0 14 -9 23 ZM135 215 q-9 9 -23 9 q-14 0 -23 -9 q-9 -9 -9 -23 q0 -14 9 -23 q9 -9 23 -9 q14 0 23 9 q9 9 9 23 q0 14 -9 23 Z" /><glyph glyph-name="uniF11E" unicode="&#xf11e;" d="M208 -1 q-86 0 -147 58.5 q-61 58.5 -61 141.5 q0 83 61 142 q61 59 147 59 q86 0 147 -59 q61 -59 61 -142 q0 -59 -33 -108 q-1 -1 -2 -2 q-1 -1 -1 -2 q-4 -8 -4 -15 l22 -88 l-84 31 q-4 2 -12 2 q-3 0 -11 -2 q-1 0 -1 -0.5 q0 -0.5 -1 -0.5 q-37 -15 -81 -15 Z" /><glyph glyph-name="uniF11F" unicode="&#xf11f;" d="M25 57 q-1 1 -1 1 l0 2 q-24 35 -24 77 q0 64 49 106 q-4 -22 -4 -34 q0 -69 51 -118.5 q51 -49.5 123 -49.5 q23 0 44 6 q-45 -53 -115 -53 q-27 0 -58 12 l-1 0 q-4 2 -8 2 q-3 0 -9 -2 l-56 -22 l12 63 q0 5 -3 10 ZM242 400 q72 0 123 -49.5 q51 -49.5 51 -118.5 q0 -47 -28 -90 l-1 -1 q-1 -1 -1 -2 q-3 -6 -3 -12 l17 -74 l-69 26 q-6 2 -10 2 q-3 0 -9 -2 l-2 -1 q-8 -3 -24 -7 q-21 -6 -44 -6 q-72 0 -122.5 49 q-50.5 49 -50.5 118 q0 18 3 35 q12 57 60 95 q48 38 110 38 Z" /><glyph glyph-name="uniF120" unicode="&#xf120;" d="M65.5 350.5 q65.5 65.5 158.5 65.5 q93 0 158.5 -65.5 q65.5 -65.5 65.5 -158.5 q0 -93 -65.5 -158.5 q-65.5 -65.5 -158.5 -65.5 q-93 0 -158.5 65.5 q-65.5 65.5 -65.5 158.5 q0 93 65.5 158.5 ZM339 267 q1 1 1 3 q0 3 -1 4 l-31 24 q-1 1 -4 1 q-2 0 -3 -1 l-111 -143 q-44 42 -45 43 q-3 3 -6 3 q-1 0 -4 -3 l-25 -25 l-1 -1 q-1 -1 -1 -4 q0 -2 1 -3 l2 -1 q78 -75 79 -76 q3 -3 5 -3 q2 0 5 3 l139 179 Z" /><glyph glyph-name="uniF121" unicode="&#xf121;" d="M371.5 383 q15.5 3 28.5 -7 q13 -10 16 -26.5 q3 -16.5 -7 -30.5 l-207 -302 q-10 -13 -25.5 -16 q-15.5 -3 -28.5 7 q-8 6 -42 42.5 q-34 36.5 -64 70.5 l-31 34 q-11 12 -11 29 q0 17 12 29 q12 12 28 11.5 q16 -0.5 27 -13.5 l99 -107 l180 263 q10 13 25.5 16 Z" /><glyph glyph-name="uniF122" unicode="&#xf122;" d="M414 338 q2 -4 2 -6 q0 -2 -2 -6 l-249 -320 q-6 -6 -9 -6 q-5 0 -10 5 l-141 136 l-3 3 q-2 4 -2 6 q0 1 2 5 l2 2 q28 30 44 46 q6 6 8 6 q4 0 10 -6 l80 -78 l200 257 q2 2 6 2 q3 0 7 -2 l55 -44 Z" /><glyph glyph-name="uniF123" unicode="&#xf123;" d="M224 150 l0 0 l174 167 q8 8 16 0 l31 -30 q8 -8 0 -16 l-213 -204 q-3 -3 -8 -3 q-5 0 -8 3 l-213 204 q-8 8 0 16 l31 30 q8 8 16 0 l174 -167 Z" /><glyph glyph-name="uniF124" unicode="&#xf124;" d="M86 192 l167 -174 q8 -8 0 -16 l-30 -31 q-8 -8 -16 0 l-204 213 q-3 3 -3 8 q0 5 3 8 l204 213 q7 7 16 -1 l30 -30 q8 -8 0 -16 l-167 -174 l0 0 Z" /><glyph glyph-name="uniF125" unicode="&#xf125;" d="M170 192 l0 0 l-167 174 q-8 8 0 16 l30 30 q9 8 16 1 l204 -213 q3 -3 3 -8 q0 -5 -3 -8 l-204 -213 q-8 -8 -16 0 l-30 31 q-8 8 0 16 l167 174 Z" /><glyph glyph-name="uniF126" unicode="&#xf126;" d="M224 234 l-174 -167 q-8 -8 -16 0 l-31 30 q-8 8 0 16 l213 204 q3 3 8 3 q5 0 8 -3 l213 -204 q8 -8 0 -16 l-31 -30 q-8 -8 -16 0 l-174 167 l0 0 Z" /><glyph glyph-name="uniF127" unicode="&#xf127;" d="M80 288 q3 33 28 40 l1 1 q21 5 21 20 l0 21 q0 19 13.5 32.5 q13.5 13.5 32.5 13.5 q19 0 32.5 -13.5 q13.5 -13.5 13.5 -32.5 l0 -21 q0 -16 21 -21 l2 0 q24 -7 27 -40 l-192 0 ZM176 384 q-13 0 -13 -14 q0 -14 13 -14 q14 0 14 14 q0 14 -14 14 ZM325 384 q11 0 19 -8 q8 -8 8 -20 l0 -360 q0 -12 -8 -20 q-8 -8 -19 -8 l-149 0 l-148 0 q-11 0 -19.5 8 q-8.5 8 -8.5 20 l0 360 q0 12 8.5 20 q8.5 8 19.5 8 l73 0 l0 -13 q0 -8 -5.5 -13.5 q-5.5 -5.5 -13.5 -5.5 l-37 0 q-12 0 -12 -13 l0 -327 q0 -12 11 -12 l265 0 q11 0 11 12 l0 327 q0 13 -12 13 l-37 0 q-8 0 -14 5.5 q-6 5.5 -6 13.5 l0 13 l74 0 ZM64 224 l0 32 l112 0 l0 -32 l-112 0 ZM64 32 l0 32 l160 0 l0 -32 l-160 0 ZM64 96 l0 32 l129 0 l0 -32 l-129 0 ZM64 160 l0 32 l208 0 l0 -32 l-208 0 Z" /><glyph glyph-name="uniF128" unicode="&#xf128;" d="M65.5 349.5 q65.5 65.5 158.5 65.5 q93 0 158.5 -65.5 q65.5 -65.5 65.5 -158.5 q0 -93 -65.5 -158.5 q-65.5 -65.5 -158.5 -65.5 q-93 0 -158.5 65.5 q-65.5 65.5 -65.5 158.5 q0 93 65.5 158.5 ZM332 116 l-75 75 l76 75 q6 6 0 12 l-22 21 q-3 3 -6 3 q-2 0 -5 -3 l-76 -74 l-76 74 q-3 3 -5 3 q-3 0 -6 -3 l-21 -21 q-6 -6 0 -12 l76 -75 l-76 -76 q-2 -1 -2 -5 q0 -4 2 -6 l21 -22 q2 -2 6 -2 q4 0 6 2 l75 76 l76 -75 q3 -3 5 -3 q3 0 6 3 l21 21 q3 2 3 6 q0 3 -3 6 Z" /><glyph glyph-name="uniF129" unicode="&#xf129;" d="M374 61 q10 -11 10 -26 q0 -15 -10 -25 q-10 -10 -25 -10 q-15 0 -26 10 l-131 131 l-131 -131 q-11 -10 -25 -10 q-14 0 -25 10 q-11 10 -11 25 q0 15 11 26 l130 131 l-130 131 q-11 11 -11 26 q0 15 11 25 q11 10 25 10 q14 0 25 -10 l131 -131 l131 131 q11 10 26 10 q15 0 25 -10 q10 -10 10 -25 q0 -15 -10 -26 l-131 -131 l131 -131 Z" /><glyph glyph-name="uniF12A" unicode="&#xf12a;" d="M380 61 q4 -4 4 -10 q0 -6 -4 -10 l-38 -37 q-4 -4 -9 -4 q-6 0 -10 4 l-131 131 l-131 -131 q-4 -4 -9 -4 q-6 0 -10 4 l-38 37 q-4 4 -4 10 q0 6 4 10 l132 131 l-132 130 q-10 10 0 20 l37 38 q6 4 10 4 q6 0 10 -4 l131 -130 l131 130 q6 4 10 4 q6 0 10 -4 l37 -38 q10 -10 0 -19 l-132 -130 l132 -132 Z" /><glyph glyph-name="uniF12B" unicode="&#xf12b;" d="M366 215 q34 0 58 -24.5 q24 -24.5 24 -59.5 q0 -34 -24 -58.5 q-24 -24.5 -58 -24.5 l-276 0 q-37 0 -63.5 27 q-26.5 27 -26.5 64 q0 30 17 53.5 q17 23.5 44 32.5 q4 22 20.5 36.5 q16.5 14.5 38.5 14.5 q12 0 26 -7 q14 30 42.5 48.5 q28.5 18.5 62.5 18.5 q48 0 81.5 -34.5 q33.5 -34.5 33.5 -83.5 l0 -3 Z" /><glyph glyph-name="uniF12C" unicode="&#xf12c;" d="M379 348 q13 -12 0 -25 l-32 -31 l-55 55 l31 32 q13 13 25 0 l31 -31 ZM282 338 l55 -55 l-177 -173 l-64 -14 l14 64 l172 178 ZM320 192 l32 32 l0 -201 q0 -10 -6.5 -16.5 q-6.5 -6.5 -16.5 -6.5 l-306 0 q-10 0 -16.5 6.5 q-6.5 6.5 -6.5 16.5 l0 306 q0 10 6.5 16.5 q6.5 6.5 16.5 6.5 l201 0 l-32 -32 l-149 0 q-11 0 -11 -10 l0 -268 q0 -10 10 -10 l269 0 q9 0 9 10 l0 150 Z" /><glyph glyph-name="uniF12D" unicode="&#xf12d;" d="M155.5 260.5 q28.5 28.5 68.5 28.5 q40 0 68.5 -28.5 q28.5 -28.5 28.5 -68.5 q0 -40 -28.5 -68.5 q-28.5 -28.5 -68.5 -28.5 q-40 0 -68.5 28.5 q-28.5 28.5 -28.5 68.5 q0 40 28.5 68.5 ZM193 161 q13 -13 31 -13 q18 0 31 13 q13 13 13 31 q0 18 -13 31 q-13 13 -31 13 q-18 0 -31 -13 q-13 -13 -13 -31 q0 -18 13 -31 ZM65.5 350.5 q65.5 65.5 158.5 65.5 q93 0 158.5 -65.5 q65.5 -65.5 65.5 -158.5 q0 -93 -65.5 -158.5 q-65.5 -65.5 -158.5 -65.5 q-93 0 -158.5 65.5 q-65.5 65.5 -65.5 158.5 q0 93 65.5 158.5 ZM137 105 q36 -36 87 -36 q51 0 87 36 q36 36 36 87 q0 51 -36 87 q-36 36 -87 36 q-51 0 -87 -36 q-36 -36 -36 -87 q0 -51 36 -87 Z" /><glyph glyph-name="uniF12E" unicode="&#xf12e;" d="M286 279 q2 -6 2 -10 l0 -245 q0 -10 -6.5 -17 q-6.5 -7 -15.5 -7 l-243 0 q-9 0 -16 7 q-7 7 -7 17 l0 336 q0 10 7 17 q7 7 16 7 l160 0 q6 0 9 -2 q4 -2 7 -5 l84 -92 l3 -6 ZM48 269 l0 -10 q0 -3 3 -3 l71 0 q3 0 3 3 l0 10 q0 3 -3 3 l-71 0 q-3 0 -3 -3 ZM48 141 l0 -10 q0 -3 3 -3 l123 0 q2 0 2 3 l0 10 q0 3 -2 3 l-123 0 q-3 0 -3 -3 ZM208 67 l0 10 q0 3 -2 3 l-155 0 q-3 0 -3 -3 l0 -10 q0 -3 3 -3 l155 0 q2 0 2 3 ZM240 195 l0 10 q0 3 -2 3 l-187 0 q-3 0 -3 -3 l0 -10 q0 -3 3 -3 l187 0 q2 0 2 3 ZM193 270 l60 0 l-71 78 l0 -66 q0 -12 11 -12 Z" /><glyph glyph-name="uniF12F" unicode="&#xf12f;" d="M287 279 q1 -3 1 -9 l0 -244 q0 -10 -6 -18 q-6 -8 -15 -8 l-243 0 q-9 0 -16.5 8 q-7.5 8 -7.5 18 l0 335 q0 9 7.5 16 q7.5 7 16.5 7 l160 0 q6 0 9 -2 q6 -3 7 -4 l83 -92 q3 -3 4 -7 ZM193 337 l0 -63 l58 0 l-58 63 ZM32 32 l224 0 l0 210 l-67 0 q-11 0 -19.5 8.5 q-8.5 8.5 -8.5 19.5 l0 82 l-129 0 l0 -320 Z" /><glyph glyph-name="uniF130" unicode="&#xf130;" d="M0 272 l0 32 l512 0 l0 -32 l-512 0 ZM0 176 l0 32 l512 0 l0 -32 l-512 0 ZM0 80 l0 32 l512 0 l0 -32 l-512 0 Z" /><glyph glyph-name="uniF131" unicode="&#xf131;" d="M303 128 l-286 0 q-17 0 -17 16 q0 4 3 8 l138 191 q9 9 19 9 q10 0 19 -9 l138 -190 q3 -5 3 -9 q0 -16 -17 -16 ZM308 96 q12 0 12 -12 l0 -40 q0 -12 -12 -12 l-296 0 q-12 0 -12 12 l0 40 q0 12 12 12 l296 0 Z" /><glyph glyph-name="uniF132" unicode="&#xf132;" d="M19 299 q-10 5 -13 11 q-2 6 0.5 8 q2.5 2 11.5 2 l191 0 l191 0 q9 0 11.5 -2 q2.5 -2 0.5 -8 q-3 -6 -13 -11 q-165 -90 -169 -92 q-8 -4 -21 -4 q-13 0 -21 4 q-4 2 -169 92 ZM408 295 q7 1 7.5 0.5 q0.5 -0.5 0.5 -5.5 l0 -205 q0 -7 -7.5 -14 q-7.5 -7 -14.5 -7 l-185 0 l-185 0 q-8 0 -16 7 q-8 7 -8 14 l0 205 q0 9 9 5 q3 -2 25 -16.5 q22 -14.5 54.5 -36.5 q32.5 -22 52.5 -35 l-83 -93 q-3 -3 -1 -5 q1 -1 3 -0.5 q2 0.5 3 1.5 l98 83 q21 -14 27 -17 q8 -4 21 -4 q13 0 21 4 q6 3 27 17 l98 -83 q1 -1 3 -1.5 q2 -0.5 3 0.5 q1 1 -2 5 l-82 93 q20 13 52 35 q32 22 54 36.5 q22 14.5 25 16.5 Z" /><glyph glyph-name="uniF133" unicode="&#xf133;" d="M224 320 q110 0 224 -129 q-27 -27 -34.5 -34 q-7.5 -7 -36.5 -31 q-29 -24 -47 -33 q-18 -9 -47.5 -19 q-29.5 -10 -58.5 -10 q-36 0 -66 9 q-30 9 -60 31 q-30 22 -47 37.5 q-17 15.5 -51 50.5 q65 65 115.5 96.5 q50.5 31.5 108.5 31.5 ZM160.5 128 q26.5 -27 63.5 -27 q37 0 63.5 27 q26.5 27 26.5 64 q0 37 -26.5 64 q-26.5 27 -63.5 27 q-37 0 -63.5 -27 q-26.5 -27 -26.5 -64 q0 -37 26.5 -64 ZM224 224 q0 -14 9 -23 q9 -9 23 -9 q10 0 20 7 l0 -7 q0 -22 -15 -37.5 q-15 -15.5 -37 -15.5 q-22 0 -37 15.5 q-15 15.5 -15 37.5 q0 22 15 37.5 q15 15.5 37 15.5 l8 0 q-8 -10 -8 -21 Z" /><glyph glyph-name="uniF134" unicode="&#xf134;" d="M317 319 q7 0 10.5 -0.5 q3.5 -0.5 6 -5 q2.5 -4.5 2.5 -14.5 l0 -28 l-288 0 l0 28 q0 14 4.5 17 q4.5 3 15.5 3 l249 0 ZM269 352 q11 0 15 -3 q4 -3 4 -16 l-192 0 q0 9 2.5 13 q2.5 4 6 5 q3.5 1 11.5 1 l153 0 ZM368 278 q18 -11 15 -41 l-17 -184 q-4 -21 -24 -21 l-300 0 q-20 0 -24 21 l-17 185 q-2 19 1 26 q3 7 14 14 l15 10 l0 -32 l321 0 l0 32 l16 -10 Z" /><glyph glyph-name="uniF135" unicode="&#xf135;" d="M400 240 q7 0 11.5 -4.5 q4.5 -4.5 4.5 -10.5 l0 -210 q0 -6 -4.5 -10.5 q-4.5 -4.5 -11.5 -4.5 l-384 0 q-7 0 -11.5 4.5 q-4.5 4.5 -4.5 10.5 l0 210 q0 13 13 15 q-3 2 -4 7 l-9 45 q-3 14 13 18 l370 74 q14 4 18 -12 l9 -46 q4 -14 -12 -18 l-342 -68 l344 0 ZM257 46 l-20 58 l51 36 l-62 0 l-20 58 l-19 -58 l-63 0 l51 -36 l-19 -58 l50 36 l51 -36 Z" /><glyph glyph-name="uniF136" unicode="&#xf136;" d="M115 -4 q-52 29 -83.5 81.5 q-31.5 52.5 -31.5 114.5 q0 93 65.5 158.5 q65.5 65.5 158.5 65.5 q35 0 68 -11 q1 -1 2.5 -1 q1.5 0 2.5 -1 q19 -6 35 -15 q53 -29 84.5 -81.5 q31.5 -52.5 31.5 -114.5 q0 -93 -65.5 -158.5 q-65.5 -65.5 -158.5 -65.5 q-35 0 -68 11 q-1 1 -2.5 1 q-1.5 0 -2.5 1 q-24 8 -35 14 l-1 1 ZM86 291 q-32 -45 -32 -99 q0 -48 24.5 -88 q24.5 -40 65.5 -62 q16 -8 19 -9 q1 -1 2.5 -1 q1.5 0 2.5 -1 q9 -3 29 -7 q9 -2 27 -2 q54 0 99 32 l-52 53 l36 40 l55 -54 q32 45 32 99 q0 49 -25 89.5 q-25 40.5 -66 61.5 q-12 6 -18 8 q-1 1 -2.5 1 q-1.5 0 -2.5 1 q-9 3 -29 7 q-9 2 -27 2 q-55 0 -100 -32 l53 -52 l-36 -41 l-55 54 ZM178 58 l38 113 l-85 0 l139 155 l-38 -113 l85 0 l-139 -155 Z" /><glyph glyph-name="uniF137" unicode="&#xf137;" d="M0 160 l224 256 l-51 -192 l147 0 l-224 -256 l51 192 l-147 0 Z" /><glyph glyph-name="uniF139" unicode="&#xf139;" d="M366 256 q12 0 15.5 -4 q3.5 -4 2.5 -14 l-12 -186 q-1 -7 -2 -10.5 q-1 -3.5 -6 -6.5 q-5 -3 -13 -3 l-317 0 q-12 0 -16 5 q-4 5 -5 15 l-13 184 q-2 20 18 20 l348 0 ZM362 305 l2 -33 l-344 0 q0 12 6 63 q1 9 4 12.5 q3 3.5 6.5 4 q3.5 0.5 14.5 0.5 l75 0 q20 0 23 -1.5 q3 -1.5 14 -13.5 q11 -13 17 -15 q6 -2 24 -2 l143 0 q15 0 15 -15 Z" /><glyph glyph-name="uniF13A" unicode="&#xf13a;" d="M224 150 q-88 0 -137.5 -19 q-49.5 -19 -86.5 -83 q2 8 5.5 22.5 q3.5 14.5 20 50 q16.5 35.5 39 63 q22.5 27.5 65 50 q42.5 22.5 94.5 22.5 l0 80 l160 -144 l-160 -134 l0 92 Z" /><glyph glyph-name="uniF13D" unicode="&#xf13d;" d="M384 248 q-37 -22 -37 -56 q0 -34 37 -56 q-5 -16 -16 -38 q-34 8 -62 -20 q-25 -25 -16 -62 q-22 -11 -38 -16 q-22 37 -60 37 q-38 0 -60 -37 q-18 6 -39 16 q9 38 -15 62 q-24 24 -62 15 q-10 21 -16 39 q37 22 37 60 q0 34 -37 56 q7 22 16 38 q34 -8 62 20 q24 24 15 62 q21 10 39 16 q22 -37 60 -37 q38 0 60 37 q18 -6 39 -16 q-9 -38 15 -62 q28 -28 62 -20 q11 -22 16 -38 ZM123 123 q29 -29 69 -29 q40 0 69 29 q29 29 29 69 q0 40 -29 69 q-29 29 -69 29 q-40 0 -69 -29 q-29 -29 -29 -69 q0 -40 29 -69 Z" /><glyph glyph-name="uniF13E" unicode="&#xf13e;" d="M384 154 l-44 0 q-6 -19 -17 -39 l32 -32 l-54 -54 l-33 32 q-14 -8 -38 -15 l0 -46 l-76 0 l0 46 q-26 8 -38 15 l-33 -32 l-54 54 l32 32 q-11 20 -17 39 l-44 0 l0 76 l43 0 q8 27 16 41 l-30 30 l54 54 l29 -29 q17 10 42 17 l0 41 l76 0 l0 -41 q25 -7 42 -17 l29 29 l54 -54 l-30 -30 q11 -20 16 -41 l43 0 l0 -76 ZM154 154 q16 -16 38 -16 q22 0 38 16 q16 16 16 38 q0 22 -16 38 q-16 16 -38 16 q-22 0 -38 -16 q-16 -16 -16 -38 q0 -22 16 -38 Z" /><glyph glyph-name="uniF13F" unicode="&#xf13f;" d="M64 295 q0 -7 -7 -7 l-50 0 q-7 0 -7 7 l0 50 q0 7 7 7 l50 0 q7 0 7 -7 l0 -50 ZM192 295 q0 -7 -7 -7 l-50 0 q-7 0 -7 7 l0 50 q0 7 7 7 l50 0 q7 0 7 -7 l0 -50 ZM320 295 q0 -7 -7 -7 l-50 0 q-7 0 -7 7 l0 50 q0 7 7 7 l50 0 q7 0 7 -7 l0 -50 ZM64 167 q0 -7 -7 -7 l-50 0 q-7 0 -7 7 l0 50 q0 7 7 7 l50 0 q7 0 7 -7 l0 -50 ZM192 167 q0 -7 -7 -7 l-50 0 q-7 0 -7 7 l0 50 q0 7 7 7 l50 0 q7 0 7 -7 l0 -50 ZM320 167 q0 -7 -7 -7 l-50 0 q-7 0 -7 7 l0 50 q0 7 7 7 l50 0 q7 0 7 -7 l0 -50 ZM64 39 q0 -7 -7 -7 l-50 0 q-7 0 -7 7 l0 50 q0 7 7 7 l50 0 q7 0 7 -7 l0 -50 ZM192 39 q0 -7 -7 -7 l-50 0 q-7 0 -7 7 l0 50 q0 7 7 7 l50 0 q7 0 7 -7 l0 -50 ZM320 39 q0 -7 -7 -7 l-50 0 q-7 0 -7 7 l0 50 q0 7 7 7 l50 0 q7 0 7 -7 l0 -50 Z" /><glyph glyph-name="uniF140" unicode="&#xf140;" d="M383 210 q2 -39 -2 -88.5 q-4 -49.5 -11 -73.5 q-14 -48 -30 -64 q-16 -16 -42 -16 q-24 0 -41 17.5 q-17 17.5 -17 41.5 l0 106 q0 25 15.5 42 q15.5 17 37.5 17 q28 0 44 -24 q11 7 13 22 q4 33 -5 64 q-5 17 -18 24.5 q-13 7.5 -18 13.5 q-4 6 -8 10 l-10 10 q-3 3 -5 4 q-20 17 -34 23 q-27 13 -60 13 q-34 0 -61 -13 q-11 -5 -33 -23 q-2 -1 -5 -4 l-10 -10 q-4 -4 -8 -10 q-5 -6 -18 -13.5 q-13 -7.5 -18 -24.5 q-9 -32 -5 -64 q1 -7 4 -12.5 q3 -5.5 6 -7.5 l3 -2 q16 24 44 24 q22 0 37.5 -17.5 q15.5 -17.5 15.5 -41.5 l0 -106 q0 -24 -17 -41.5 q-17 -17.5 -41 -17.5 q-26 0 -42 16 q-16 16 -30 64 q-7 24 -11 73.5 q-4 49.5 -2 88.5 q4 89 56 145 q19 20 24 23 q13 10 29 18 q38 20 82 20 q44 0 82 -20 q14 -7 28 -18 q9 -7 25 -23 q52 -56 56 -145 Z" /><glyph glyph-name="uniF141" unicode="&#xf141;" d="M382 352 q34 -35 34 -85.5 q0 -50.5 -34 -85.5 l-174 -181 l-174 181 q-34 35 -34 85.5 q0 50.5 34 85.5 q30 32 73.5 32 q43.5 0 73.5 -32 l27 -28 l28 28 q30 32 73 32 q43 0 73 -32 Z" /><glyph glyph-name="uniF142" unicode="&#xf142;" d="M65.5 350.5 q65.5 65.5 158.5 65.5 q93 0 158.5 -65.5 q65.5 -65.5 65.5 -158.5 q0 -93 -65.5 -158.5 q-65.5 -65.5 -158.5 -65.5 q-93 0 -158.5 65.5 q-65.5 65.5 -65.5 158.5 q0 93 65.5 158.5 ZM244 89 q1 13 -7.5 22 q-8.5 9 -21.5 9 q-12 0 -21 -8 q-9 -8 -9 -21 q0 -13 8 -21.5 q8 -8.5 20 -8.5 q13 0 22 7.5 q9 7.5 9 20.5 ZM293 217 q12 17 12 36 q0 33 -25 52 q-24 18 -62 18 q-28 0 -47 -13 q-28 -19 -28 -68 l49 0 q0 21 4 27 q9 15 26 15 q17 0 25 -11 q8 -11 8 -23 q0 -8 -8 -20 q-2 -4 -10 -10 q-26 -15 -35 -30 q-8 -13 -10 -41 q0 -4 4 -4 l39 0 q5 0 5 4 q0 11 2 19 q3 9 12 17 l14 9 q19 14 25 23 Z" /><glyph glyph-name="uniF143" unicode="&#xf143;" d="M217 371 q39 -30 39 -83 q0 -31 -19 -57 q-9 -11 -40 -36 l-21 -14 q-15 -12 -20 -28 q-3 -9 -3 -29 q0 -6 -7 -6 l-62 0 q-7 0 -7 5 q2 46 15 66 q7 10 21 22 q14 12 25 19 l11 7 q11 9 15 15 q12 17 12 32 q0 22 -11 36 q-15 18 -41 18 q-25 0 -40 -24 q-7 -11 -7 -43 l-77 0 q0 79 44 108 q29 20 75 20 q61 0 98 -28 ZM114 78 q21 -1 34 -14 q13 -13 12 -34 q-1 -21 -15 -33.5 q-14 -12.5 -34 -11.5 q-20 1 -33 13.5 q-13 12.5 -12 33.5 q1 21 14.5 34 q13.5 13 33.5 12 Z" /><glyph glyph-name="uniF144" unicode="&#xf144;" d="M384 160 l-48 0 l0 -160 l-96 0 l0 128 l-96 0 l0 -128 l-96 0 l0 160 l-48 0 l192 224 l192 -224 Z" /><glyph glyph-name="uniF147" unicode="&#xf147;" d="M370 238 q-14 -14 -34 -14 q-20 0 -34 14 q-14 14 -14 34 q0 20 14 34 q14 14 34 14 q20 0 34 -14 q14 -14 14 -34 q0 -20 -14 -34 ZM420 384 q12 0 20 -8 q8 -8 8 -20 l0 -328 q0 -12 -8 -20 q-8 -8 -20 -8 l-392 0 q-12 0 -20 8 q-8 8 -8 20 l0 328 q0 12 8 20 q8 8 20 8 l392 0 ZM317 186 l99 -106 l0 260 q0 12 -13 12 l-358 0 q-11 0 -13 -12 l0 -260 l126 152 q8 8 17 8 q11 0 17 -7 l54 -59 l4 -4 q6 -4 11 -4 q5 0 12 5 l18 16 q7 5 13 5 q8 0 13 -6 Z" /><glyph glyph-name="uniF148" unicode="&#xf148;" d="M426 308 q10 -1 16.5 -8 q6.5 -7 5.5 -16 l-14 -263 q-1 -10 -8 -16 q-7 -6 -17 -5 l-330 16 q-10 1 -16.5 7 q-6.5 6 -5.5 16 l2 46 l-15 -1 q-9 -1 -15.5 4.5 q-6.5 5.5 -7.5 13.5 l-21 236 q-1 8 4.5 14.5 q5.5 6.5 14.5 7.5 l296 24 q9 1 15.5 -4.5 q6.5 -5.5 7.5 -13.5 l5 -54 l83 -4 ZM71 302 q1 9 7.5 15.5 q6.5 6.5 16.5 6.5 l219 -11 l-2 31 l-1 0 l0 1 q-2 8 -10 8 l-261 -22 q-10 0 -10 -9 l0 -1 l16 -178 l18 25 l7 134 ZM405 66 l10 198 l0 1 q0 10 -11 10 l-58 3 l-29 2 l-204 9 q-10 0 -12 -9 l0 -1 l-3 -63 l-7 -128 l0 -7 l6 7 l102 109 q6 6 14 6 q9 0 14 -7 l43 -49 l3 -3 q4 -4 10 -4 q3 0 9 3 l17 12 q5 4 11 4 q8 0 11 -5 l27 -33 l47 -55 ZM341 186 q-15 0 -25 10 q-10 10 -10 25 q0 15 10.5 25 q10.5 10 24.5 10 q15 0 25 -10.5 q10 -10.5 10 -24.5 q0 -14 -10.5 -24.5 q-10.5 -10.5 -24.5 -10.5 Z" /><glyph glyph-name="uniF149" unicode="&#xf149;" d="M448 195 q1 -93 -63.5 -159 q-64.5 -66 -157.5 -68 q-93 -1 -159 63.5 q-66 64.5 -68 157.5 q-1 93 63.5 159 q64.5 66 157.5 68 q93 1 159 -63.5 q66 -64.5 68 -157.5 ZM247 327 q-9 9 -23 9 q-14 0 -23 -9 q-9 -9 -9 -23 q0 -14 9 -23 q9 -9 23 -9 q14 0 23 9 q9 9 9 23 q0 14 -9 23 ZM268 53 l0 11 l-22 0 l0 172 l-66 0 l0 -12 l22 0 l0 -160 l-22 0 l0 -11 l88 0 Z" /><glyph glyph-name="uniF14A" unicode="&#xf14a;" d="M96 0 l32 0 l0 -16 l-128 0 l0 16 l32 0 l0 240 l-32 0 l0 16 l96 0 l0 -256 ZM98 318 q-14 -14 -34 -14 q-20 0 -34 14 q-14 14 -14 34 q0 20 14 34 q14 14 34 14 q20 0 34 -14 q14 -14 14 -34 q0 -20 -14 -34 Z" /><glyph glyph-name="uniF14B" unicode="&#xf14b;" d="M376 315 q40 -54 40 -123 q0 -86 -61 -147 q-61 -61 -147 -61 q-86 0 -147 61 q-61 61 -61 147 q0 86 61 147 q61 61 147 61 q69 0 123 -40 q8 5 18 5 q13 0 22.5 -9.5 q9.5 -9.5 9.5 -22.5 q0 -10 -5 -18 ZM283 15 q35 15 61 41 q26 26 41 61 q15 36 15 75 q0 39 -15 75 q-10 21 -21 38 q-8 -4 -15 -4 q-13 0 -22.5 9.5 q-9.5 9.5 -9.5 22.5 q0 7 4 15 q-17 11 -38 21 q-36 15 -75 15 q-39 0 -75 -15 q-35 -15 -61 -41 q-26 -26 -41 -61 q-15 -36 -15 -75 q0 -39 15 -75 q15 -35 41 -61 q26 -26 61 -41 q36 -15 75 -15 q39 0 75 15 ZM208 96 q-96 0 -96 96 q0 96 96 96 q96 0 96 -96 q0 -96 -96 -96 Z" /><glyph glyph-name="uniF1F9" unicode="&#xf1f9;" d="M0 375 q0 9 9 9 l270 0 q9 0 9 -9 l0 -366 q0 -9 -9 -9 l-270 0 q-9 0 -9 9 l0 366 ZM130 24 q0 -14 14 -14 q14 0 14 14 q0 6 -4.5 10 q-4.5 4 -9.5 4 q-14 0 -14 -14 ZM32 329 l0 -275 q0 -6 6 -6 l211 0 q7 0 7 6 l0 275 q0 7 -7 7 l-211 0 q-6 0 -6 -7 Z" /><glyph glyph-name="uniF1FA" unicode="&#xf1fa;" d="M168 384 q10 0 17 -7 q7 -7 7 -17 l0 -336 q0 -10 -7 -17 q-7 -7 -17 -7 l-144 0 q-10 0 -17 7 q-7 7 -7 17 l0 336 q0 10 7 17 q7 7 17 7 l144 0 ZM84 352 q-4 0 -4 -4 q0 -4 4 -4 l24 0 q4 0 4 4 q0 4 -4 4 l-24 0 ZM72 348 q0 4 -4 4 q-4 0 -4 -4 q0 -4 4 -4 q4 0 4 4 ZM80 32 q0 -16 16 -16 q16 0 16 16 q0 16 -16 16 q-16 0 -16 -16 ZM176 64 l0 256 l-160 0 l0 -256 l160 0 Z" /><glyph glyph-name="uniF1FB" unicode="&#xf1fb;" d="M89 127.5 q9 9.5 23 9.5 q14 0 23 -9.5 q9 -9.5 9 -22.5 q0 -13 -9 -22.5 q-9 -9.5 -23 -9.5 q-14 0 -23 9.5 q-9 9.5 -9 22.5 q0 13 9 22.5 ZM196 384 q11 0 19.5 -8 q8.5 -8 8.5 -20 l0 -328 q0 -12 -8.5 -20 q-8.5 -8 -19.5 -8 l-168 0 q-11 0 -19.5 8 q-8.5 8 -8.5 20 l0 328 q0 12 8.5 20 q8.5 8 19.5 8 l168 0 ZM61 53 q21 -21 51 -21 q30 0 51 21 q21 21 21 51 q0 30 -21 51 q-21 21 -51 21 q-30 0 -51 -21 q-21 -21 -21 -51 q0 -30 21 -51 ZM192 221 l0 118 q-2 11 -12 13 l-136 0 q-12 -2 -12 -15 l0 -114 q0 -15 14 -15 l131 0 q13 0 15 13 Z" /><glyph glyph-name="uniF1FC" unicode="&#xf1fc;" d="M480 342 l0 -262 l-448 0 l0 262 q0 10 10 10 l428 0 q10 0 10 -10 ZM448 112 l0 208 l-384 0 l0 -208 l384 0 ZM0 59 l0 5 l512 0 l0 -5 q-55 -16 -105 -21.5 q-50 -5.5 -151 -5.5 q-101 0 -151 5.5 q-50 5.5 -105 21.5 Z" /><glyph glyph-name="uniF1FD" unicode="&#xf1fd;" d="M412 69 q8 -1 10 -11.5 q2 -10.5 -3 -19.5 q-5 -9 -12 -8 q-21 -1 -63 12 q-16 -19 -39 -30 q-18 -8 -45 -12 q-27 -4 -71.5 7 q-44.5 11 -80.5 43 q-74 67 -101 226 q-14 86 -4 106 q2 4 5 1 q37 -39 88.5 -52.5 q51.5 -13.5 102 -21.5 q50.5 -8 79.5 -32 q41 -33 63 -88 q22 -55 14 -104 q5 -8 57 -16 ZM316 65 q10 10 10 24 q-45 15 -87.5 36.5 q-42.5 21.5 -71 42.5 q-28.5 21 -50.5 39.5 q-22 18.5 -33 30.5 l-10 11 q4 -6 12 -16 q8 -10 33.5 -36.5 q25.5 -26.5 52 -49.5 q26.5 -23 66 -47 q39.5 -24 78.5 -35 Z" /><glyph glyph-name="uniF1FE" unicode="&#xf1fe;" d="M192 240 l0 0 ZM304 288 q33 0 56.5 -23.5 q23.5 -23.5 23.5 -56.5 l0 -32 q0 -33 -23.5 -56.5 q-23.5 -23.5 -56.5 -23.5 l-112 0 q-51 0 -73 48 q-7 17 -7 32 l0 32 l48 0 l0 -32 q0 -14 9 -23 q9 -9 23 -9 l112 0 q14 0 23 9 q9 9 9 23 l0 32 q0 14 -9 23 q-9 9 -23 9 l-16 0 q-3 14 -11 26 q-8 12 -15 17 l-6 5 l48 0 ZM266 240 q6 -15 6 -32 l0 -32 l-48 0 l0 32 q0 14 -9 23 q-9 9 -23 9 l-112 0 q-14 0 -23 -9 q-9 -9 -9 -23 l0 -32 q0 -14 9 -23 q9 -9 23 -9 l16 0 q3 -14 11 -26 q8 -12 15 -17 l6 -5 l-48 0 q-33 0 -56.5 23.5 q-23.5 23.5 -23.5 56.5 l0 32 q0 33 23.5 56.5 q23.5 23.5 56.5 23.5 l112 0 q24 0 44.5 -13.5 q20.5 -13.5 29.5 -34.5 Z" /><glyph glyph-name="uniF1FF" unicode="&#xf1ff;" d="M35 349 q35 35 84 35 q49 0 84.5 -35 q35.5 -35 35.5 -85 q0 -51 -30 -117 q-30 -66 -60 -107 l-30 -40 q-5 6 -13 17 q-8 11 -28.5 42.5 q-20.5 31.5 -36 62 q-15.5 30.5 -28.5 70.5 q-13 40 -13 72 q0 50 35 85 ZM79.5 222.5 q16.5 -16.5 39.5 -16.5 q23 0 40 16.5 q17 16.5 17 39.5 q0 23 -17 40 q-17 17 -40 17 q-23 0 -39.5 -17 q-16.5 -17 -16.5 -40 q0 -23 16.5 -39.5 Z" /><glyph glyph-name="uniF200" unicode="&#xf200;" d="M22 -32 q-9 0 -15.5 6.5 q-6.5 6.5 -6.5 15.5 l0 212 q0 9 6.5 15.5 q6.5 6.5 15.5 6.5 l3 0 l19 0 l0 31 q0 69 43 115 q43 46 105 46 l0 0 q62 0 105 -46 q43 -46 43 -115 l0 -31 l22 0 q9 0 15.5 -6.5 q6.5 -6.5 6.5 -15.5 l0 -212 q0 -9 -6.5 -15.5 q-6.5 -6.5 -15.5 -6.5 l-340 0 ZM97 255 l0 -31 l17 0 l155 0 l18 0 l0 31 q0 50 -28 80 l0 1 q-27 29 -67 29 l0 0 q-40 0 -67 -29 l0 -1 q-28 -30 -28 -80 Z" /><glyph glyph-name="uniF201" unicode="&#xf201;" d="M184 148 l0 -58 q37 6 61.5 34.5 q24.5 28.5 24.5 67.5 q0 21 -10 44 q-8 15 -9 17 l47 43 q1 -1 3 -4 q33 -44 33 -100 l0 -4 q-1 -53 -31.5 -95 q-30.5 -42 -79.5 -59 q-23 -8 -39 -9 l0 -57 l-76 67 l-26 23 l44 39 l58 51 ZM0 196 q1 54 32.5 96 q31.5 42 80.5 59 q20 7 37 8 l0 57 l76 -67 l26 -23 l-44 -39 l-59 -51 l1 58 q-37 -6 -61.5 -35 q-24.5 -29 -24.5 -67 q0 -22 10 -45 q6 -13 9 -16 l-47 -44 q0 1 -1 2.5 q-1 1.5 -2 2.5 q-33 46 -33 100 l0 4 Z" /><glyph glyph-name="uniF202" unicode="&#xf202;" d="M110.5 352 q-10.5 -11 -26.5 -11 q-16 0 -26.5 11 q-10.5 11 -10.5 27 q0 16 10.5 26.5 q10.5 10.5 26.5 10.5 q16 0 26.5 -10.5 q10.5 -10.5 10.5 -26.5 q0 -16 -10.5 -27 ZM121 333 q20 0 33.5 -14.5 q13.5 -14.5 13.5 -33.5 l0 -114 q0 -10 -8 -14.5 q-8 -4.5 -16 0 q-8 4.5 -8 14.5 l0 105 l-5 0 l0 -286 q0 -13 -10.5 -19 q-10.5 -6 -21 -1 q-10.5 5 -11.5 20 l0 165 l-1 0 l-7 0 l0 -165 q0 -14 -11 -19.5 q-11 -5.5 -21.5 0 q-10.5 5.5 -10.5 19.5 l0 286 l-6 0 l0 -105 q0 -10 -7.5 -14.5 q-7.5 -4.5 -15.5 0 q-8 4.5 -8 14.5 l0 114 q0 19 13.5 33.5 q13.5 14.5 33.5 14.5 l37 0 l37 0 Z" /><glyph glyph-name="uniF203" unicode="&#xf203;" d="M441 311 q7 -5 7 -14 l0 -281 q0 -10 -7 -14 q-4 -2 -7 -2 q-6 0 -8 2 l-97 66 l-97 -66 q-8 -4 -15 0 l-97 66 l-97 -66 q-7 -4 -15 0 q-8 5 -8 14 l0 281 q0 9 7 14 l105 71 q8 4 15 0 l97 -66 l98 66 q8 4 15 0 l104 -71 ZM103 95 l0 242 l-71 -50 l0 -242 l71 50 ZM135 95 l73 -49 l0 129 l-4 -11 q-5 1 -20 10 l8 13 q8 -5 16 -8 l0 109 l-73 49 l0 -101 q11 -6 13 -7 l-10 -13 l-1 1 q-1 1 -2 1 l0 -123 ZM240 46 l73 49 l0 109 l-1 -1 l0 -1 l-6 -6 l-12 11 l6 6 q2 1 4 4.5 q2 3.5 4 5.5 l5 -5 l0 119 l-73 -49 l0 -112 l7 0 l3 -15 q-2 0 -5 -0.5 q-3 -0.5 -4 -0.5 l-1 0 l0 -114 ZM416 46 l0 242 l-71 49 l0 -88 q2 1 4.5 1 q2.5 0 3.5 1 l4 -16 l-5 -1 q-5 -1 -7 -2 l0 -137 l71 -49 ZM97 227 q-7 -2 -14 -7 l-11 12 q8 6 12 8 q3 2 9 4 l5 -15 q-1 -1 -0.5 -1 q0.5 0 -0.5 -1 ZM265 182 q13 8 15 10 l11 -12 q-8 -8 -19 -13 l-7 15 ZM67 192 l0 -1 l-15 5 l0 1 q4 12 9 20 l13 -9 q-3 -4 -7 -16 ZM166 210 q5 -6 11 -11 l-11 -12 q-2 2 -6 6.5 q-4 4.5 -6 6.5 l-3 3 l12 11 q1 -1 3 -4 ZM376 218 l-11 12 l10 10 l-10 10 l11 12 l10 -11 l11 11 l11 -12 l-10 -10 l10 -10 l-11 -12 l-11 11 l-10 -11 Z" /><glyph glyph-name="uniF204" unicode="&#xf204;" d="M0 210 q0 8 6 13.5 q6 5.5 14 5.5 q8 0 13.5 -5.5 q5.5 -5.5 5.5 -13.5 l0 -14 q0 -41 31 -72 q31 -31 74 -31 q43 0 74 31 q31 31 31 72 l0 14 q0 8 5.5 13.5 q5.5 5.5 13.5 5.5 q8 0 14 -5.5 q6 -5.5 6 -13.5 l0 -14 q0 -49 -30.5 -86.5 q-30.5 -37.5 -77.5 -49.5 l-2 0 l-2 -1 q-9 -3 -12 -13 l0 -58 q0 -8 -6 -14 q-6 -6 -14 -6 q-8 0 -14 6 q-6 6 -6 14 l0 58 q-3 10 -12 13 l-2 1 l-2 0 q-47 12 -77.5 49.5 q-30.5 37.5 -30.5 86.5 l0 14 ZM67 340 q0 32 22.5 54 q22.5 22 54.5 22 q32 0 55 -22.5 q23 -22.5 23 -53.5 l0 -144 q0 -31 -23 -53 q-23 -22 -55 -22 q-32 0 -54.5 22 q-22.5 22 -22.5 53 l0 144 Z" /><glyph glyph-name="uniF205" unicode="&#xf205;" d="M33 400 q21 16 47 16 q26 0 47 -16 q21 -16 29 -43 q8 -24 2 -55 q-3 -13 -14 -28 q-4 -6 -11 -9 q-1 0 -1 -0.5 q0 -0.5 -1 -0.5 q-6 -2 -10 -3 q-20 -5 -39 -5 l-1 0 l-1 0 q-21 0 -41 5 q-4 1 -10 3 q-1 0 -1 0.5 q0 0.5 -1 0.5 q-7 3 -11 9 q-11 15 -14 28 q-6 31 2 55 q8 27 29 43 ZM119 247 q12 0 12 -12 l0 -2 q-18 -240 -19 -252 q-3 -13 -32 -13 q-13 0 -21 3 q-8 3 -9 7 l-2 3 q0 5 -3.5 52.5 q-3.5 47.5 -8 109.5 q-4.5 62 -6.5 90 l0 2 q0 12 11 12 l1 0 l1 -1 l1 0 q1 0 3 -0.5 q2 -0.5 3 -0.5 q9 -2 31 -2 q20 0 29 2 q1 0 3 0.5 q2 0.5 3 0.5 l1 0 l1 1 l1 0 ZM90 166 l0 33 q0 11 -10 11 q-10 0 -10 -11 l0 -33 q0 -11 10 -11 q10 0 10 11 Z" /><glyph glyph-name="uniF206" unicode="&#xf206;" d="M201 416 q23 0 39 -15 q16 -15 16 -37 l0 -28 l-59 0 l0 -37 l59 0 l0 -43 l-59 0 l0 -37 l59 0 l0 -43 l-59 0 l0 -37 l59 0 l0 -42 q0 -22 -16 -37 q-16 -15 -39 -15 l-30 0 l0 -77 l-86 0 l0 77 l-30 0 q-23 0 -39 15 q-16 15 -16 37 l0 42 l152 0 l0 37 l-152 0 l0 43 l152 0 l0 37 l-152 0 l0 43 l152 0 l0 37 l-152 0 l0 28 q0 22 16 37 q16 15 39 15 l146 0 Z" /><glyph glyph-name="uniF207" unicode="&#xf207;" d="M65.5 350.5 q65.5 65.5 158.5 65.5 q93 0 158.5 -65.5 q65.5 -65.5 65.5 -158.5 q0 -93 -65.5 -158.5 q-65.5 -65.5 -158.5 -65.5 q-93 0 -158.5 65.5 q-65.5 65.5 -65.5 158.5 q0 93 65.5 158.5 ZM352 176 l0 32 l-256 0 l0 -32 l256 0 Z" /><glyph glyph-name="uniF208" unicode="&#xf208;" d="M353 224 q13 0 22 -9.5 q9 -9.5 9 -22.5 q0 -13 -9 -22.5 q-9 -9.5 -22 -9.5 l-322 0 q-13 0 -22 9.5 q-9 9.5 -9 22.5 q0 13 9 22.5 q9 9.5 22 9.5 l322 0 Z" /><glyph glyph-name="uniF209" unicode="&#xf209;" d="M0 160 l0 64 l384 0 l0 -64 l-384 0 Z" /><glyph glyph-name="uniF20A" unicode="&#xf20a;" d="M437 384 q11 0 11 -11 l0 -266 q0 -11 -11 -11 l-426 0 q-11 0 -11 11 l0 266 q0 11 11 11 l426 0 ZM416 128 l0 224 l-384 0 l0 -224 l384 0 ZM270 0 l-92 0 q-35 0 -34 7 q0 2 4 5 q4 3 12.5 8 q8.5 5 13 8.5 q4.5 3.5 4.5 6.5 l1 45 l45 0 l45 0 q1 -41 1 -45 q0 -3 4.5 -6.5 q4.5 -3.5 13 -8.5 q8.5 -5 12.5 -8 q12 -9 -11 -11 l-19 -1 Z" /><glyph glyph-name="uniF20B" unicode="&#xf20b;" d="M85.5 158 q-14.5 -14 -35.5 -14 q-21 0 -35.5 14 q-14.5 14 -14.5 34 q0 20 14.5 34 q14.5 14 35.5 14 q21 0 35.5 -14 q14.5 -14 14.5 -34 q0 -20 -14.5 -34 ZM227.5 158 q-14.5 -14 -35.5 -14 q-21 0 -35.5 14 q-14.5 14 -14.5 34 q0 20 14.5 34 q14.5 14 35.5 14 q21 0 35.5 -14 q14.5 -14 14.5 -34 q0 -20 -14.5 -34 ZM369.5 158 q-14.5 -14 -35.5 -14 q-21 0 -35.5 14 q-14.5 14 -14.5 34 q0 20 14.5 34 q14.5 14 35.5 14 q21 0 35.5 -14 q14.5 -14 14.5 -34 q0 -20 -14.5 -34 Z" /><glyph glyph-name="uniF20C" unicode="&#xf20c;" d="M362 416 q9 0 15.5 -6 q6.5 -6 6.5 -15 l0 -303 q0 -39 -12 -55 q-13 -21 -43 -21 l-37 0 q-21 0 -36.5 13.5 q-15.5 13.5 -15.5 34.5 q0 21 15.5 34.5 q15.5 13.5 36.5 13.5 l60 0 l0 192 l-208 -38 l0 -232 q0 -23 -13 -41 q-1 -1 -2 -2.5 q-1 -1.5 -1 -2.5 l-2 -2 q-15 -18 -38 -18 l-37 0 q-21 0 -36 13.5 q-15 13.5 -15 34.5 q0 21 15 34.5 q15 13.5 36 13.5 l61 0 l0 286 q1 10 8.5 19.5 q7.5 9.5 18.5 12.5 l218 33 q3 1 5 1 Z" /><glyph glyph-name="uniF20D" unicode="&#xf20d;" d="M353 224 q13 0 22 -9.5 q9 -9.5 9 -22.5 q0 -13 -9 -22.5 q-9 -9.5 -22 -9.5 l-322 0 q-13 0 -22 9.5 q-9 9.5 -9 22.5 q0 13 9 22.5 q9 9.5 22 9.5 l322 0 ZM353 352 q13 0 22 -9.5 q9 -9.5 9 -22.5 q0 -13 -9 -22.5 q-9 -9.5 -22 -9.5 l-322 0 q-13 0 -22 9.5 q-9 9.5 -9 22.5 q0 13 9 22.5 q9 9.5 22 9.5 l322 0 ZM353 96 q13 0 22 -9.5 q9 -9.5 9 -22.5 q0 -13 -9 -22.5 q-9 -9.5 -22 -9.5 l-322 0 q-13 0 -22 9.5 q-9 9.5 -9 22.5 q0 13 9 22.5 q9 9.5 22 9.5 l322 0 Z" /><glyph glyph-name="uniF20E" unicode="&#xf20e;" d="M0 175 l0 32 l320 0 l0 -32 l-320 0 ZM0 271 l0 32 l320 0 l0 -32 l-320 0 ZM0 79 l0 32 l320 0 l0 -32 l-320 0 Z" /><glyph glyph-name="uniF20F" unicode="&#xf20f;" d="M149 293 q11 0 11 -12 l0 -195 q0 -39 -24 -63 q-23 -23 -56 -23 q-32 0 -56 23.5 q-24 23.5 -24 64.5 l0 234 q0 38 29 54 q30 17 57 0 q29 -18 29 -54 l-1 -225 q0 -20 -9 -32 q-9 -12 -25 -12 q-14 0 -24 11.5 q-10 11.5 -10 32.5 l0 173 q0 4 4 8 q4 4 8 4 q11 0 11 -12 l0 -173 q0 -21 11 -21 q3 0 7 4 q5 7 5 17 l0 225 q0 25 -17 34 q-18 10 -35 0 q-17 -9 -17 -34 l0 -234 q0 -31 17 -47.5 q17 -16.5 40 -16.5 q23 0 40 16 q17 16 17 47 l0 195 q0 11 12 11 Z" /><glyph glyph-name="uniF210" unicode="&#xf210;" d="M96 12 q0 -12 -12 -12 l-72 0 q-12 0 -12 12 l0 360 q0 12 12 12 l72 0 q12 0 12 -12 l0 -360 ZM244 384 q12 0 12 -12 l0 -360 q0 -12 -12 -12 l-72 0 q-12 0 -12 12 l0 360 q0 12 12 12 l72 0 Z" /><glyph glyph-name="uniF211" unicode="&#xf211;" d="M397 120 l-42 0 l0 51 l-51 0 l0 42 l51 0 l0 51 l42 0 l0 -51 l51 0 l0 -42 l-51 0 l0 -51 ZM384 0 l-192 0 l-192 0 q0 26 2 40 q4 20 81 49 q12 4 29 10 q23 8 27 12.5 q4 4.5 4 26.5 q0 4 0 6 q0 12 -9 23.5 q-9 11.5 -14 40.5 q-2 10 -6 16 q-4 6 -8 24 q-3 9 -0.5 17 q2.5 8 2.5 10 q-2 16 -4 33 q-2 23 20 49.5 q22 26.5 68 26.5 q46 0 68 -26.5 q22 -26.5 20 -49.5 q-2 -17 -4 -33 q0 -2 2.5 -10 q2.5 -8 -0.5 -17 q-4 -18 -8 -24 q-4 -6 -6 -16 q-5 -29 -14 -40.5 q-9 -11.5 -9 -23.5 q0 -30 6 -34 q2 -2 49 -19 q2 -1 5 -2 q77 -29 81 -49 l2 -40 Z" /><glyph glyph-name="uniF212" unicode="&#xf212;" d="M393 123 q51 -19 53 -33 l2 -90 l-98 0 q0 71 -1 77 q-1 8 -2.5 13 q-1.5 5 -14.5 16 q-13 11 -38 21 q-3 1 -9.5 3.5 q-6.5 2.5 -9.5 3.5 q4 2 7 4 q3 2 5 3.5 q2 1.5 2.5 4.5 q0.5 3 0.5 4.5 q0 1.5 0 6 q0 4.5 0 5.5 q0 9 -6 18.5 q-6 9.5 -9 28.5 q-1 6 -3.5 11 q-2.5 5 -5.5 17 q-2 5 -0.5 11 q1.5 6 1.5 7 q0 3 -1 10 q-1 7 -1 12 q-1 16 13 34 q14 18 44 18 q30 0 44.5 -18.5 q14.5 -18.5 13.5 -33.5 q0 -5 -1 -12 q-1 -7 -1 -10 q0 -2 1.5 -6.5 q1.5 -4.5 -0.5 -11.5 q-3 -12 -5.5 -17 q-2.5 -5 -3.5 -11 q-3 -19 -9.5 -29 q-6.5 -10 -6.5 -18 q0 -21 5 -25 q2 -1 34 -14 ZM325 0 l-163 0 l-162 0 q0 65 2 77 q4 18 69 43 q40 15 45 20.5 q5 5.5 5 34.5 q0 10 -8 19.5 q-8 9.5 -12 34.5 q-1 8 -4.5 14 q-3.5 6 -6.5 22 q-2 8 -0.5 14.5 q1.5 6.5 1.5 8.5 q-2 14 -3 29 q-2 20 16.5 43.5 q18.5 23.5 57.5 23.5 q39 0 58 -24 q19 -24 17 -43 q-1 -15 -3 -29 q0 -2 2 -8 q2 -6 0 -15 q-3 -16 -7 -22 q-4 -6 -5 -14 q-4 -25 -12 -34.5 q-8 -9.5 -8 -19.5 q0 -16 0 -20 q0 -4 3 -11 q3 -7 9 -9.5 q6 -2.5 19 -7.5 q3 -1 19 -7 q65 -25 69 -43 q2 -12 2 -47 l0 -30 Z" /><glyph glyph-name="uniF213" unicode="&#xf213;" d="M384 0 l-192 0 l-192 0 q0 26 2 40 q4 20 81 49 q12 4 29 10 q23 8 27 12.5 q4 4.5 4 26.5 q0 4 0 6 q0 12 -9 23.5 q-9 11.5 -14 40.5 q-2 10 -6 16 q-4 6 -8 24 q-3 9 -0.5 17 q2.5 8 2.5 10 q-2 16 -4 33 q-2 23 20 49.5 q22 26.5 68 26.5 q46 0 68 -26.5 q22 -26.5 20 -49.5 q-2 -17 -4 -33 q0 -2 2.5 -10 q2.5 -8 -0.5 -17 q-4 -18 -8 -24 q-4 -6 -6 -16 q-5 -29 -14 -40.5 q-9 -11.5 -9 -23.5 q0 -30 6 -34 q2 -2 49 -19 q2 -1 5 -2 q77 -29 81 -49 l2 -40 Z" /><glyph glyph-name="uniF214" unicode="&#xf214;" d="M250 136 q0 -74 -6 -102 q-1 -2 2 -4 q3 -2 3 -3 l51 -33 l3 -8 l1 -18 l-68 16 l-12 -32 l-12 32 l-68 -16 l1 18 q0 6 2 8 l52 33 q0 1 3 3 q3 2 2 4 q-6 28 -6 102 q0 3 -2 4.5 q-2 1.5 -4 1.5 l-2 -1 l-62 -13 l-128 -49 q0 25 9 31 l183 131 q5 63 5 113 q0 21 8.5 49.5 q8.5 28.5 18.5 28.5 q10 0 18.5 -28.5 q8.5 -28.5 8.5 -49.5 l5 -113 l183 -131 q9 -6 9 -31 l-128 49 l-62 13 q-8 2 -8 -5 Z" /><glyph glyph-name="uniF215" unicode="&#xf215;" d="M309 215 q11 -9 11 -23 q0 -14 -11 -23 l-278 -166 q-6 -3 -11 -3 q-8 0 -14 6 q-6 6 -6 14 l0 344 q0 8 6 14 q6 6 14 6 q6 0 11 -3 l278 -166 Z" /><glyph glyph-name="uniF216" unicode="&#xf216;" d="M65.5 350.5 q65.5 65.5 158.5 65.5 q93 0 158.5 -65.5 q65.5 -65.5 65.5 -158.5 q0 -93 -65.5 -158.5 q-65.5 -65.5 -158.5 -65.5 q-93 0 -158.5 65.5 q-65.5 65.5 -65.5 158.5 q0 93 65.5 158.5 ZM352 176 l0 32 l-112 0 l0 112 l-32 0 l0 -112 l-112 0 l0 -32 l112 0 l0 -112 l32 0 l0 112 l112 0 Z" /><glyph glyph-name="uniF217" unicode="&#xf217;" d="M353 224 q13 0 22 -9.5 q9 -9.5 9 -22.5 q0 -13 -9 -22.5 q-9 -9.5 -22 -9.5 l-129 0 l0 -129 q0 -13 -9.5 -22 q-9.5 -9 -22.5 -9 q-13 0 -22.5 9 q-9.5 9 -9.5 22 l0 129 l-129 0 q-13 0 -22 9.5 q-9 9.5 -9 22.5 q0 13 9 22.5 q9 9.5 22 9.5 l129 0 l0 129 q0 13 9.5 22 q9.5 9 22.5 9 q13 0 22.5 -9 q9.5 -9 9.5 -22 l0 -129 l129 0 Z" /><glyph glyph-name="uniF218" unicode="&#xf218;" d="M384 224 l0 -64 l-160 0 l0 -160 l-64 0 l0 160 l-160 0 l0 64 l160 0 l0 160 l64 0 l0 -160 l160 0 Z" /><glyph glyph-name="uniF219" unicode="&#xf219;" d="M93 96 l-93 0 l0 54 l101 0 l13 84 l-99 0 l0 54 l107 0 l22 128 l64 0 l-22 -128 l106 0 l22 128 l63 0 l-22 -128 l93 0 l0 -54 l-102 0 l-12 -84 l99 0 l0 -54 l-107 0 l-22 -128 l-63 0 l22 128 l-107 0 l-22 -128 l-63 0 l22 128 ZM177 234 l-12 -84 l106 0 l12 84 l-106 0 Z" /><glyph glyph-name="uniF21A" unicode="&#xf21a;" d="M392 320 q23 0 39.5 -14.5 q16.5 -14.5 16.5 -40.5 l0 -131 q0 -23 -17 -38.5 q-17 -15.5 -39 -15.5 l-40 0 l0 -112 l-8 0 l-8 0 l-224 0 l-11 0 l-5 0 l0 112 l-40 0 q-22 0 -39 17.5 q-17 17.5 -17 44.5 l0 123 q0 27 16.5 41 q16.5 14 39.5 14 l40 0 l0 64 l256 0 l0 -64 l40 0 ZM336 -16 l0 176 l-224 0 l0 -176 l224 0 ZM336 320 l0 48 l-224 0 l0 -48 l224 0 ZM384 256 l0 16 l-17 0 l0 -16 l17 0 ZM128 112 l0 16 l192 0 l0 -16 l-192 0 ZM128 64 l0 16 l192 0 l0 -16 l-192 0 ZM128 16 l0 16 l192 0 l0 -16 l-192 0 Z" /><glyph glyph-name="uniF21B" unicode="&#xf21b;" d="M355 45 q-61 -61 -147 -61 q-86 0 -147 61 q-61 61 -61 147 q0 86 61 147 q61 61 147 61 q86 0 147 -61 q61 -61 61 -147 q0 -86 -61 -147 Z" /><glyph glyph-name="uniF21C" unicode="&#xf21c;" d="M352 96 l-104 112 l74 0 q-5 48 -42.5 80 q-37.5 32 -87.5 32 q-53 0 -90.5 -37.5 q-37.5 -37.5 -37.5 -90.5 q0 -53 37.5 -90.5 q37.5 -37.5 90.5 -37.5 q42 0 75 24 l6 5 l43 -46 l-7 -6 q-54 -41 -117 -41 q-67 0 -119.5 42 q-52.5 42 -67.5 107 q0 1 -1 3 l0 1 l0 2 q0 1 0 1 l-1 2 l0 1 q0 1 -0.5 2 q-0.5 1 -0.5 2 q-2 12 -2 19 l0 1 l0 4 l0 5 l0 5 l0 4 l0 1 q0 7 2 19 q0 1 0.5 2 q0.5 1 0.5 2 l0 1 l1 1 l0 1 l0 3 l0 1 l0 1 q1 1 1 2 q15 65 67.5 107 q52.5 42 119.5 42 l0 0 q16 0 31 -3 l2 0 l2 0 q89 -16 133 -96 q20 -35 23 -77 l65 0 l-96 -112 Z" /><glyph glyph-name="uniF21D" unicode="&#xf21d;" d="M257 256 q43 0 75 -21.5 q32 -21.5 47.5 -52 q15.5 -30.5 24.5 -61 q9 -30.5 10 -51.5 l2 -22 q-36 65 -69 83.5 q-33 18.5 -90 18.5 l0 -92 l-152 134 l152 144 l0 -80 ZM0 192 l144 136 l0 -57 l-82 -79 l82 -68 l0 -58 l-144 126 Z" /><glyph glyph-name="uniF21E" unicode="&#xf21e;" d="M384 48 q-37 64 -86.5 83 q-49.5 19 -137.5 19 l0 -92 l-160 134 l160 144 l0 -80 q52 0 94.5 -21.5 q42.5 -21.5 65.5 -52 q23 -30.5 38.5 -61 q15.5 -30.5 20.5 -51.5 l5 -22 Z" /><glyph glyph-name="uniF21F" unicode="&#xf21f;" d="M381 61 q7 -7 0 -14 l-43 -44 q-3 -3 -8 -3 q-4 0 -7 3 l-84 86 q-38 -23 -80 -23 q-65 0 -112 46.5 q-47 46.5 -47 112.5 q0 66 47 112.5 q47 46.5 112 46.5 q65 0 111.5 -46.5 q46.5 -46.5 46.5 -112.5 q0 -42 -21 -78 l85 -86 ZM227 293.5 q-28 28.5 -68 28.5 q-40 0 -68.5 -28.5 q-28.5 -28.5 -28.5 -68.5 q0 -40 28.5 -68.5 q28.5 -28.5 68.5 -28.5 q40 0 68 28.5 q28 28.5 28 68.5 q0 40 -28 68.5 Z" /><glyph glyph-name="uniF220" unicode="&#xf220;" d="M288 70 l0 59 l38 31 l0 -109 q0 -19 -19 -19 l-288 0 q-8 0 -13.5 5.5 q-5.5 5.5 -5.5 13.5 l0 218 q0 19 19 19 l120 0 q-13 -8 -23.5 -17.5 q-10.5 -9.5 -15.5 -14.5 l-4 -6 l-58 0 l0 -180 l250 0 ZM256 224 q-61 0 -93.5 -20 q-32.5 -20 -66.5 -76 q0 7 1.5 18 q1.5 11 10.5 39 q9 28 24.5 50 q15.5 22 48 39.5 q32.5 17.5 75.5 17.5 l0 60 l128 -96 l-128 -96 l0 64 Z" /><glyph glyph-name="uniF221" unicode="&#xf221;" d="M338 267 q-19 0 -34.5 -6.5 q-15.5 -6.5 -32 -22.5 q-16.5 -16 -25.5 -26.5 q-9 -10.5 -28 -36.5 q-22 -29 -34 -43.5 q-12 -14.5 -34.5 -36 q-22.5 -21.5 -48 -31 q-25.5 -9.5 -54.5 -9.5 l-47 0 l0 63 l47 0 q19 0 34.5 6.5 q15.5 6.5 33.5 25 q18 18.5 24.5 27 q6.5 8.5 28.5 37.5 q21 28 33.5 42.5 q12.5 14.5 34.5 35 q22 20.5 47 29.5 q25 9 55 9 l29 0 l0 54 l81 -81 l-81 -84 l0 48 l-29 0 ZM121 230 q-35 35 -74 36 l-47 0 l0 63 l47 0 q62 0 113 -48 q-10 -12 -28 -36 q-2 -3 -5.5 -8 q-3.5 -5 -5.5 -7 ZM367 118 l0 47 l81 -84 l-81 -81 l0 54 l-29 0 q-64 0 -117 53 q5 5 32 41 q1 2 3.5 5 q2.5 3 3.5 4 q36 -39 78 -39 l29 0 Z" /><glyph glyph-name="uniF222" unicode="&#xf222;" d="M12 352 l8 0 q12 0 12 -12 l0 -113 l187 122 q3 3 8 3 q6 0 11 -5 q5 -5 5 -12 l0 -63 l118 78 q2 2 8 2 q15 0 15 -17 l0 -286 q0 -17 -15 -17 q-3 0 -8 3 l-118 78 l0 -64 q0 -7 -5 -12 q-5 -5 -11 -5 q-3 0 -8 3 l-187 122 l0 -113 q0 -12 -12 -12 l-8 0 q-12 0 -12 12 l0 296 q0 12 12 12 Z" /><glyph glyph-name="uniF223" unicode="&#xf223;" d="M372 352 q12 0 12 -12 l0 -296 q0 -12 -12 -12 l-8 0 q-12 0 -12 12 l0 113 l-187 -122 q-5 -3 -8 -3 q-15 0 -15 17 l0 64 l-119 -78 q-5 -3 -8 -3 q-15 0 -15 17 l0 286 q0 17 15 17 q6 0 8 -2 l119 -78 l0 63 q0 17 15 17 q5 0 8 -3 l187 -122 l0 113 q0 12 12 12 l8 0 Z" /><glyph glyph-name="uniF224" unicode="&#xf224;" d="M272 240 l-192 0 l0 -60 l0 -89 l24 0 l16 0 l0 -15 l0 -52 q0 -8 8 -8 q8 0 8 8 l0 52 l0 15 l17 0 l49 0 l15 0 l0 -15 l0 -52 q0 -3 3 -6 l1 0 q2 -2 4 -2 l1 0 l0 0 q7 0 7 8 l0 52 l0 15 l17 0 l22 0 l0 89 l0 60 ZM288 256 l0 -76 l0 -90 q0 -15 -10 -15 l-29 0 l0 -51 q0 -10 -6.5 -17 q-6.5 -7 -16.5 -7 l-1 0 q-8 0 -15 5 q-9 7 -9 19 l0 51 l-49 0 l0 -51 q0 -10 -7 -17 q-7 -7 -17 -7 q-10 0 -17 7 q-7 7 -7 17 l0 51 l-28 0 q-12 0 -12 15 l0 90 l0 76 l224 0 ZM336 248 q0 8 -8 8 q-8 0 -8 -8 l0 -96 q0 -8 8 -8 q8 0 8 8 l0 96 ZM311 265 q7 7 17 7 q10 0 17 -7 q7 -7 7 -17 l0 -96 q0 -10 -7 -17 q-7 -7 -17 -7 q-10 0 -17 7 q-7 7 -7 17 l0 96 q0 10 7 17 ZM32 248 q0 8 -8 8 q-8 0 -8 -8 l0 -96 q0 -8 8 -8 q8 0 8 8 l0 96 ZM7 265 q7 7 17 7 q10 0 17 -7 q7 -7 7 -17 l0 -96 q0 -10 -7 -17 q-7 -7 -17 -7 q-10 0 -17 7 q-7 7 -7 17 l0 96 q0 10 7 17 ZM175 354 q-16 0 -38 -6 l-10 -4 q-35 -15 -44 -56 l186 0 q-9 40 -44 56 l-10 4 q-18 6 -39 6 l0 0 l-1 0 ZM105 384 l1 0 l19 -23 q23 9 50 9 l1 0 q25 0 50 -9 l20 23 q1 -1 2 -1 l2 -3 l-19 -22 q22 -10 35.5 -29 q13.5 -19 17 -32 q3.5 -13 4.5 -25 l-224 0 q1 8 3 17.5 q2 9.5 7.5 23.5 q5.5 14 17.5 26.5 q12 12.5 29 19.5 l-19 22 l2 2 l1 1 ZM127 309 q-5 0 -9.5 4 q-4.5 4 -4.5 9 q0 5 4 9.5 q4 4.5 10 4.5 q5 0 9 -4.5 q4 -4.5 4 -9.5 q0 -13 -13 -13 ZM238 322 q0 -13 -13 -13 q-13 0 -13 13 q0 14 13 14 q5 0 9 -4.5 q4 -4.5 4 -9.5 Z" /><glyph glyph-name="uniF225" unicode="&#xf225;" d="M64 180 l0 76 l224 0 l0 -76 l0 -90 q0 -14 -11 -14 l-28 0 l0 -52 q0 -10 -7 -17 q-7 -7 -17 -7 l-1 0 q-7 0 -14 5 q-9 7 -9 19 l0 52 l-49 0 l0 -52 q0 -10 -7 -17 q-7 -7 -17 -7 q-10 0 -17 7 q-7 7 -7 17 l0 52 l-29 0 q-11 0 -11 14 l0 90 ZM311 265 q7 7 17 7 q10 0 17 -7 q7 -7 7 -17 l0 -96 q0 -10 -7 -17 q-7 -7 -17 -7 q-10 0 -17 7 q-7 7 -7 17 l0 96 q0 10 7 17 ZM7 265 q7 7 17 7 q10 0 17 -7 q7 -7 7 -17 l0 -96 q0 -10 -7 -17 q-7 -7 -17 -7 q-10 0 -17 7 q-7 7 -7 17 l0 96 q0 10 7 17 ZM231 359 q22 -10 35.5 -29.5 q13.5 -19.5 17 -32.5 q3.5 -13 4.5 -25 l-224 0 q4 64 56 87 l-18 22 q0 1 1 2 l3 1 l19 -23 q25 9 51 9 q25 0 50 -9 l20 23 q1 0 2 -1 l2 -2 l-19 -22 ZM127 309 q13 0 13 13 q0 5 -4 9.5 q-4 4.5 -9 4.5 q-6 0 -10 -4.5 q-4 -4.5 -4 -9.5 q0 -5 4.5 -9 q4.5 -4 9.5 -4 ZM225 309 q5 0 9.5 4 q4.5 4 4.5 9 q0 5 -4.5 9.5 q-4.5 4.5 -9.5 4.5 q-13 0 -13 -14 q0 -13 13 -13 Z" /><glyph glyph-name="uniF226" unicode="&#xf226;" d="M238 278 q-15 0 -37 -8 q-20 -8 -35 -8 q-13 0 -37 8 q-22 8 -34 8 q-18 0 -34 -10 q-19 -11 -31 -31 q-18 -27 -13 -77 q4 -51 35 -99 q28 -45 50 -45 l1 0 q6 0 20 6 q20 10 44 10 q24 0 44 -10 q14 -6 19 -6 q22 0 52 48 q9 14 17 31 q-19 11 -30 28 q-17 25 -18 52 q-2 30 10 53 q9 18 24 30 q-22 20 -47 20 ZM238 294 q41 0 71 -39 q-30 -17 -39 -49 q-9 -32 5 -62 q14 -30 45 -42 q-11 -26 -24 -46 q-36 -56 -65 -56 l-1 0 q-11 0 -28.5 8 q-17.5 8 -34.5 8 q-18 0 -35.5 -8 q-17.5 -8 -28.5 -8 l-1 0 q-30 0 -64 53 q-32 50 -37 106 q-5 56 16 87 q30 48 78 48 q15 0 37.5 -8 q22.5 -8 33.5 -8 q10 0 32 8 q22 8 40 8 ZM214 364 q-17 -8 -28 -22 q-8 -10 -13 -23 q-2 -6 -2 -9 q18 6 28 21 q11 14 15 33 ZM230 384 q4 -32 -18 -62 q-23 -30 -56 -30 l-1 0 q-5 29 18 60 q25 30 57 32 Z" /><glyph glyph-name="uniF227" unicode="&#xf227;" d="M238 294 q41 0 71 -39 q-30 -17 -39 -49 q-9 -32 5 -62 q14 -30 45 -42 q-11 -26 -24 -46 q-36 -56 -65 -56 l-1 0 q-11 0 -28.5 8 q-17.5 8 -34.5 8 q-18 0 -35.5 -8 q-17.5 -8 -28.5 -8 l-1 0 q-30 0 -64 53 q-32 50 -37 106 q-5 56 16 87 q30 48 78 48 q15 0 37.5 -8 q22.5 -8 33.5 -8 q10 0 32 8 q22 8 40 8 ZM230 384 q4 -32 -18 -62 q-23 -30 -56 -30 l-1 0 q-5 29 18 60 q25 30 57 32 Z" /><glyph glyph-name="uniF228" unicode="&#xf228;" d="M7 284 q-7 3 -7 7.5 q0 4.5 7 7.5 l169 82 q6 3 16 3 q10 0 16 -3 l169 -82 q7 -3 7 -7.5 q0 -4.5 -7 -7.5 l-169 -82 q-6 -3 -16 -3 q-10 0 -16 3 l-169 82 ZM183 366 l-156 -75 l156 -75 q2 -1 9 -1 q7 0 9 1 l156 75 l-156 75 q-4 2 -9 2 q-5 0 -9 -2 ZM377 200 q7 -3 7 -8 q0 -5 -7 -8 l-169 -81 q-8 -4 -16 -4 q-8 0 -16 4 l-169 81 q-7 3 -7 8 q0 5 7 8 q27 13 33 16 q6 4 13 0 l123 -60 q6 -3 16 -3 q10 0 16 3 q121 59 125 61 q5 2 9 0 l35 -17 ZM201 117 l156 75 l-19 9 l-123 -59 q-10 -5 -23 -5 q-13 0 -23 5 l-123 59 l-19 -9 l156 -75 q4 -2 9 -2 q5 0 9 2 ZM377 100 q7 -3 7 -7.5 q0 -4.5 -7 -7.5 l-169 -82 q-6 -3 -16 -3 q-10 0 -16 3 l-169 82 q-7 3 -7 7.5 q0 4.5 7 7.5 q27 14 33 17 q5 3 13 -1 l123 -59 q6 -3 16 -3 q10 0 16 3 q121 58 125 60 q5 2 9 0 l35 -17 ZM201 18 l156 75 l-19 9 l-123 -60 q-8 -4 -23 -4 q-15 0 -23 4 l-123 60 l-19 -9 l156 -75 q4 -2 9 -2 q5 0 9 2 Z" /><glyph glyph-name="uniF229" unicode="&#xf229;" d="M7 284 q-7 3 -7 7.5 q0 4.5 7 7.5 l169 82 q6 3 16 3 q10 0 16 -3 l169 -82 q7 -3 7 -7.5 q0 -4.5 -7 -7.5 l-169 -82 q-6 -3 -16 -3 q-10 0 -16 3 l-169 82 ZM377 200 q7 -3 7 -8 q0 -5 -7 -8 l-169 -81 q-8 -4 -16 -4 q-8 0 -16 4 l-169 81 q-7 3 -7 8 q0 5 7 8 q27 13 33 16 q6 4 13 0 l123 -60 q6 -3 16 -3 q10 0 16 3 q121 59 125 61 q5 2 9 0 l35 -17 ZM377 100 q7 -3 7 -7.5 q0 -4.5 -7 -7.5 l-169 -82 q-6 -3 -16 -3 q-10 0 -16 3 l-169 82 q-7 3 -7 7.5 q0 4.5 7 7.5 q27 14 33 17 q5 3 13 -1 l123 -59 q6 -3 16 -3 q10 0 16 3 q121 58 125 60 q5 2 9 0 l35 -17 Z" /><glyph glyph-name="uniF22A" unicode="&#xf22a;" d="M259 302 l0 -53 l-65 103 l65 -50 ZM0 188 l0 0 ZM297 352 l151 -119 l0 -201 l-248 0 l-200 156 l63 0 q35 0 56 22.5 q21 22.5 21 59.5 q0 30 -15 51 l-3 3 l37 -29 l0 -107 l41 0 l-2 98 l63 -98 l36 0 l0 84 l0 80 ZM432 48 l0 178 l-119 92 l0 1 l0 -47 l0 -83 l0 -17 l-15 0 l-37 0 l-9 0 l-4 8 l-33 50 l1 -42 l0 -16 l-16 0 l-41 0 l-16 0 l0 16 l0 29 q-5 -10 -12 -17 q-12 -14 -30 -21 q-17 -7 -38 -7 l-16 0 l159 -124 l226 0 ZM59 298 l-1 0 l-3 0 l0 -57 l4 0 q11 0 17 6 q6 7 6 22 q0 29 -23 29 ZM59 314 q39 0 39 -45 q0 -44 -40 -44 l-19 0 l0 89 l20 0 Z" /><glyph glyph-name="uniF22B" unicode="&#xf22b;" d="M258 303 l1 -53 l-64 102 l63 -49 ZM297 352 l151 -118 l0 -202 l-248 0 l-200 157 l63 0 q35 0 56 22.5 q21 22.5 21 59.5 q0 30 -15 51 l-3 3 l37 -29 l0 -107 l40 0 l-2 99 l64 -99 l36 0 l0 83 l0 80 ZM98 270 q0 -44 -40 -44 l-19 0 l0 89 l19 0 q40 0 40 -45 Z" /><glyph glyph-name="uniF22C" unicode="&#xf22c;" d="M56 328 q56 56 136 56 q80 0 136 -56 q56 -56 56 -136 q0 -80 -56 -136 q-56 -56 -136 -56 q-80 0 -136 56 q-56 56 -56 136 q0 80 56 136 ZM314 296 q-25 -37 -85 -64 q6 -13 13 -31 q56 5 110 2 q-3 53 -38 93 ZM192 352 q-17 0 -39 -5 q30 -30 62 -87 q54 22 79 55 q-45 37 -102 37 ZM120 334 q-64 -33 -83 -103 l25 0 q65 0 121 17 q-29 52 -63 86 ZM32 200 l0 -8 q0 -61 40 -106 q38 71 122 106 q5 2 14 4 q-6 16 -10 24 q-60 -19 -138 -21 q-4 0 -14 0.5 q-10 0.5 -14 0.5 ZM192 32 q31 0 57 10 q-5 42 -15 79 q-4 17 -16 49 q-12 -3 -17 -6 q-75 -34 -107 -98 q44 -34 98 -34 ZM278 58 q66 43 73 116 q-59 4 -99 0 q11 -31 12 -38 q9 -35 14 -78 Z" /><glyph glyph-name="uniF22D" unicode="&#xf22d;" d="M56 328 q56 56 136 56 q80 0 136 -56 q56 -56 56 -136 q0 -80 -56 -136 q-56 -56 -136 -56 q-80 0 -136 56 q-56 56 -56 136 q0 80 56 136 ZM79 79 q47 -47 113 -47 q66 0 113 47 q47 47 47 113 q0 66 -47 113 q-47 47 -113 47 q-66 0 -113 -47 q-47 -47 -47 -113 q0 -66 47 -113 ZM242 201 q-7 18 -13 31 q40 18 63 39 q25 -32 28 -67 q-44 0 -78 -3 ZM271 292 q-23 -19 -56 -32 q-19 34 -38 59 q5 1 15 1 q43 0 79 -28 ZM142 310 q19 -22 41 -62 q-53 -16 -113 -17 q17 56 72 79 ZM319 176 q-6 -51 -46 -83 q0 2 -3.5 18 q-3.5 16 -5.5 25 q-1 7 -12 38 q36 3 67 2 ZM194 192 q-64 -27 -104 -78 q-26 36 -26 78 l0 7 q76 2 134 21 q4 -8 10 -24 q-9 -2 -14 -4 ZM219 170 q9 -25 15 -49 q3 -12 10 -46 q-25 -11 -52 -11 q-46 0 -81 29 q33 45 90 71 q4 2 18 6 Z" /><glyph glyph-name="uniF22E" unicode="&#xf22e;" d="M113 371 l79 -66 l-114 -71 l-78 63 l113 74 ZM27 295 l52 -42 l86 53 l-53 46 l-85 -57 ZM306 235 l78 -63 l-78 -51 l0 -39 l-114 -69 l-114 68 l0 39 l-78 52 l78 63 l114 -71 l-79 -66 l-19 12 l0 -20 l98 -59 l98 59 l0 20 l-19 -12 l-79 66 l114 71 ZM79 217 l-52 -44 l85 -55 l53 44 l-86 55 ZM219 162 l53 -44 l85 56 l-52 43 l-86 -55 ZM384 297 l-78 -63 l-114 71 l79 66 l113 -74 ZM219 305 l86 -52 l52 42 l-85 56 l-53 -46 Z" /><glyph glyph-name="uniF22F" unicode="&#xf22f;" d="M113 371 l79 -66 l-114 -71 l-78 63 l113 74 ZM0 172 l78 62 l114 -70 l-79 -66 l-113 74 ZM192 164 l114 70 l78 -62 l-113 -74 l-79 66 ZM384 297 l-78 -63 l-114 71 l79 66 l113 -74 ZM192 150 l80 -66 l34 22 l0 -25 l-114 -68 l-114 68 l0 25 l34 -22 l80 66 Z" /><glyph glyph-name="uniF230" unicode="&#xf230;" d="M128 256 l64 0 l-8 -64 l-56 0 l0 -192 l-83 0 l0 192 l-45 0 l0 64 l45 0 l0 43 q0 42 21 63.5 q21 21.5 70 21.5 l56 0 l0 -64 l-34 0 q-19 0 -24.5 -6 q-5.5 -6 -5.5 -20 l0 -38 ZM170 208 l4 32 l-45 0 l-17 0 l0 17 l0 37 q0 20 9 30 q11 12 37 12 l18 0 l0 32 l-40 0 q-44 0 -60 -18 q-15 -16 -15 -51 l0 -43 l0 -16 l-15 0 l-30 0 l0 -32 l30 0 l15 0 l0 -16 l0 -176 l51 0 l0 176 l0 16 l17 0 l41 0 Z" /><glyph glyph-name="uniF231" unicode="&#xf231;" d="M128 256 l64 0 l-8 -64 l-56 0 l0 -192 l-83 0 l0 192 l-45 0 l0 64 l45 0 l0 43 q0 42 21 63.5 q21 21.5 70 21.5 l56 0 l0 -64 l-34 0 q-19 0 -24.5 -6 q-5.5 -6 -5.5 -20 l0 -38 Z" /><glyph glyph-name="uniF232" unicode="&#xf232;" d="M65.5 348.5 q65.5 67.5 158.5 67.5 q93 0 158.5 -67.5 q65.5 -67.5 65.5 -162.5 q0 -75 -43 -135 q-43 -60 -110 -83 l-4 0 q-12 0 -12 12 q0 1 0.5 22.5 q0.5 21.5 0.5 39.5 q0 29 -16 43 q46 6 74.5 29.5 q28.5 23.5 28.5 83.5 q0 36 -23 62 q10 29 -2 61 l-5 0 q-23 0 -57 -24 q-29 8 -56 8 q-27 0 -56 -8 q-34 24 -57 24 l-5 0 q-12 -32 -2 -61 q-23 -26 -23 -62 q0 -60 28 -83.5 q28 -23.5 74 -29.5 q-11 -11 -14 -31 q-12 -6 -26 -6 q-25 0 -39 25 q-13 22 -35 24 q-21 0 -1 -14 q15 -8 25 -34 q1 -4 4 -9.5 q3 -5.5 16.5 -14.5 q13.5 -9 32.5 -9 q14 0 22 2 l0 -39 q0 -11 -11 -11 l-4 0 q-68 23 -110.5 82.5 q-42.5 59.5 -42.5 135.5 q0 95 65.5 162.5 ZM146 0 q-20 0 -38 9 q19 -14 44 -23 l0 6 l0 8 l-6 0 ZM157 73 q-33 8 -52 24 q11 -11 13 -16 q10 -17 25 -17 q6 0 12 2 q1 1 1 3.5 q0 2.5 1 3.5 ZM347 14 q26 20 45 46 q40 57 40 126 q0 46 -16 84 q-14 36 -45 68 q-26 27 -66 45 q-40 17 -81 17 q-41 0 -81 -17 q-40 -18 -66 -45 q-32 -33 -45 -68 q-16 -38 -16 -84 q0 -69 40 -126 q15 -21 35 -38 q-9 10 -13 22 q-8 20 -17 25 l-2 0 l0 1 q-20 12 -15 28 q5 15 25 15 l1 0 l0 0 q19 -1 32 -13 q-37 33 -37 98 q0 38 21 66 q-7 31 5 62 l3 8 l7 2 q1 0 4 0.5 q3 0.5 6 0.5 q26 0 60 -22 q26 6 53 6 l0 0 q27 0 53 -6 q34 22 60 22 q3 0 6 -0.5 q3 -0.5 4 -0.5 l7 -2 l3 -7 q12 -31 5 -63 q21 -28 21 -66 q0 -105 -92 -125 q5 -13 5 -30 l0 -51 l0 -6 q28 11 51 28 Z" /><glyph glyph-name="uniF233" unicode="&#xf233;" d="M65.5 348.5 q65.5 67.5 158.5 67.5 q93 0 158.5 -67.5 q65.5 -67.5 65.5 -162.5 q0 -75 -43 -135 q-43 -60 -110 -83 l-4 0 q-12 0 -12 12 q0 1 0.5 22.5 q0.5 21.5 0.5 39.5 q0 29 -16 43 q46 6 74.5 29.5 q28.5 23.5 28.5 83.5 q0 36 -23 62 q10 29 -2 61 l-5 0 q-23 0 -57 -24 q-29 8 -56 8 q-27 0 -56 -8 q-34 24 -57 24 l-5 0 q-12 -32 -2 -61 q-23 -26 -23 -62 q0 -60 28 -83.5 q28 -23.5 74 -29.5 q-11 -11 -14 -31 q-12 -6 -26 -6 q-25 0 -39 25 q-13 22 -35 24 q-21 0 -1 -14 q15 -8 25 -34 q1 -4 4 -9.5 q3 -5.5 16.5 -14.5 q13.5 -9 32.5 -9 q14 0 22 2 l0 -39 q0 -11 -11 -11 l-4 0 q-68 23 -110.5 82.5 q-42.5 59.5 -42.5 135.5 q0 95 65.5 162.5 Z" /><glyph glyph-name="uniF234" unicode="&#xf234;" d="M192 366 q36 -30 36 -68 q0 -39 -43 -72 q-15 -15 -15 -24 q0 -13 14 -22 l18 -14 q15 -12 22 -19.5 q7 -7.5 14 -21.5 q7 -14 7 -30 q0 -38 -36.5 -66.5 q-36.5 -28.5 -98.5 -28.5 q-53 0 -81.5 21 q-28.5 21 -28.5 51 q0 38 40 62 q29 17 98 23 q-16 21 -16 34 q0 5 5 20 q-3 0 -8.5 -0.5 q-5.5 -0.5 -7.5 -0.5 q-39 0 -62 24 q-23 24 -23 55 q0 39 32 67 q34 28 92 28 l106 0 l-33 -18 l-31 0 ZM155 142 q-2 0 -5.5 0.5 q-3.5 0.5 -6.5 0.5 q-29 0 -54 -8 q-44 -16 -44 -52 q0 -27 25 -44.5 q25 -17.5 66 -17.5 q36 0 55.5 15.5 q19.5 15.5 19.5 39.5 q0 18 -11.5 30.5 q-11.5 12.5 -44.5 35.5 ZM170 238 q13 13 13 37 q0 32 -17.5 62 q-17.5 30 -47.5 30 q-23 0 -36 -16 q-11 -13 -11 -37 q0 -31 17 -60.5 q17 -29.5 47 -29.5 q21 0 35 14 l0 0 ZM448 306 l0 -18 l-78 0 l0 -81 l-18 0 l0 81 l-80 0 l0 18 l80 0 l0 78 l18 0 l0 -78 l78 0 Z" /><glyph glyph-name="uniF235" unicode="&#xf235;" d="M210 172 q15 -12 22.5 -19 q7.5 -7 15 -22 q7.5 -15 7.5 -32 q0 -40 -37 -69.5 q-37 -29.5 -102 -29.5 q-56 0 -86 23 q-30 23 -30 54 q0 40 42 65 q31 19 85 23 q-8 14 -8 26 q0 7 1 10 l-4 0 q-42 0 -67 26 q-24 24 -24 57 q0 42 35 71 q37 29 94 29 l134 0 l-60 -33 l-13 0 q23 -27 23 -58 q0 -19 -8 -34.5 q-8 -15.5 -15.5 -22.5 q-7.5 -7 -21.5 -17 l0 -1 q-11 -11 -11 -17 q0 -7 10 -15 l18 -14 ZM85 308 q0 -26 14 -51 q16 -27 41 -27 q17 0 28 11 q10 10 10 30 q0 26 -15 53 q-17 28 -40 28 q-19 0 -29 -13 q-9 -11 -9 -31 ZM206 80 q0 14 -10 25 q-10 11 -40 31 q-1 0 -3.5 0.5 q-2.5 0.5 -4.5 0.5 q-25 0 -50 -8 q-38 -14 -38 -42 q0 -23 22 -37 q22 -14 58 -14 q31 0 48.5 12 q17.5 12 17.5 32 ZM370 306 l78 0 l0 -34 l-78 0 l0 -81 l-34 0 l0 81 l-80 0 l0 34 l80 0 l0 78 l34 0 l0 -78 Z" /><glyph glyph-name="uniF236" unicode="&#xf236;" d="M352 352 l-320 0 l0 -320 l320 0 l0 320 ZM384 384 l0 -384 l-384 0 l0 384 l384 0 ZM233 289 l45 0 l-64 -120 l0 -72 l-40 0 l0 72 l-66 120 l47 0 l40 -84 l38 84 Z" /><glyph glyph-name="uniF237" unicode="&#xf237;" d="M0 384 l384 0 l0 -384 l-384 0 l0 384 ZM214 169 l64 120 l-45 0 l-38 -84 l-40 84 l-47 0 l66 -120 l0 -72 l40 0 l0 72 Z" /><glyph glyph-name="uniF238" unicode="&#xf238;" d="M119 64 l-55 0 l0 171 l55 0 l0 -171 ZM93 261 l0 0 q-13 0 -21 8.5 q-8 8.5 -8 20.5 q0 13 8.5 21.5 q8.5 8.5 21.5 8.5 q13 0 21 -8.5 q8 -8.5 8 -21.5 q0 -12 -8.5 -20.5 q-8.5 -8.5 -21.5 -8.5 ZM257 239 q28 0 45.5 -19 q17.5 -19 17.5 -56 l0 -100 l-55 0 l0 94 q0 37 -28 37 q-20 0 -28 -20 q-2 -4 -2 -14 l0 -97 l-55 0 l0 171 l55 0 l0 -24 q20 28 50 28 ZM353 384 q13 0 22 -8.5 q9 -8.5 9 -21.5 l0 -321 q0 -13 -9 -23 q-9 -10 -22 -10 l-320 0 q-13 0 -23 10 q-10 10 -10 23 l0 321 q0 13 9.5 21.5 q9.5 8.5 23.5 8.5 l320 0 ZM350 32 q2 0 2 2 l0 316 q0 2 -2 2 l-316 0 q-2 0 -2 -2 l0 -315 q0 -3 3 -3 l315 0 Z" /><glyph glyph-name="uniF239" unicode="&#xf239;" d="M353 384 q13 0 22 -8.5 q9 -8.5 9 -21.5 l0 -321 q0 -13 -9 -23 q-9 -10 -22 -10 l-320 0 q-13 0 -23 10 q-10 10 -10 23 l0 321 q0 13 9.5 21.5 q9.5 8.5 23.5 8.5 l320 0 ZM119 64 l0 171 l-55 0 l0 -171 l55 0 ZM72 269.5 q8 -8.5 21 -8.5 q13 0 21.5 8.5 q8.5 8.5 8.5 20.5 q0 13 -8 21.5 q-8 8.5 -21 8.5 q-13 0 -21.5 -8.5 q-8.5 -8.5 -8.5 -21.5 q0 -12 8 -20.5 ZM320 64 l0 100 q0 37 -17.5 56 q-17.5 19 -45.5 19 q-30 0 -50 -28 l0 24 l-55 0 l0 -171 l55 0 l0 97 q0 10 2 14 q8 20 28 20 q28 0 28 -37 l0 -94 l55 0 Z" /><glyph glyph-name="uniF23A" unicode="&#xf23a;" d="M259 160 q0 31 32 31 q32 0 32 -31 q0 -32 -32 -32 q-32 0 -32 32 ZM127 160 q0 31 32 31 q32 0 32 -31 q0 -32 -32 -32 q-32 0 -32 32 ZM449 197 q0 -31 -27 -45 q1 -5 1 -14 q0 -58 -58 -98 q-58 -40 -140 -40 q-83 0 -141 40 q-58 40 -58 97 q0 10 1 15 q-27 14 -27 45 q0 20 15 35 q15 15 35 15 q20 0 33 -13 q55 38 129 41 l7 0 l29 98 l86 -17 q12 28 41 28 q18 0 31 -13 q13 -13 13 -32 q0 -19 -13 -32 q-13 -13 -31 -13 q-19 0 -32 13 q-13 13 -13 31 l-69 14 l-24 -77 q76 -3 129 -41 q14 13 34 13 q10 0 24 -7 q12 -6 18 -18 q7 -14 7 -25 ZM375 366 q-5 0 -11 -2 q-3 -1 -8 -6 q-4 -4 -6 -9 q-2 -6 -2 -10 q0 -11 8 -19 q8 -8 19 -8 q7 0 13 3 q7 3 10 10 q4 8 4 14 q0 11 -8 19 q-8 8 -19 8 ZM18 197 q0 -16 14 -27 q11 30 37 53 q-9 6 -19 6 q-7 0 -10 -1 q-3 -1 -9 -5 q-4 -3 -7 -7 q-4 -6 -5 -9 q-1 -3 -1 -10 ZM355 55 q50 34 50 83 l0 9 q-1 6 -5 18 q-9 25 -30 43 q-2 1 -5 4 q-3 3 -5.5 5 q-2.5 2 -4.5 3 q-53 37 -130 37 q-78 0 -131 -37 l-15 -12 q-21 -18 -30 -43 q-4 -12 -5 -18 l0 -9 q0 -49 50 -83 q53 -37 131 -37 q77 0 130 37 ZM417 170 q14 9 14 27 q0 14 -9 23 q-9 9 -22 9 q-11 0 -20 -6 q26 -23 37 -53 ZM289 90 l13 -12 q-30 -30 -77 -30 q-48 0 -78 30 l13 12 q24 -24 65 -24 q40 0 64 24 Z" /><glyph glyph-name="uniF23B" unicode="&#xf23b;" d="M449 197 q0 -31 -27 -45 q1 -5 1 -14 q0 -57 -58.5 -97.5 q-58.5 -40.5 -140.5 -40.5 q-82 0 -140 40 q-58 40 -58 97 q0 10 1 15 q-27 14 -27 45 q0 21 15 35.5 q15 14.5 35 14.5 q18 0 33 -13 q55 38 129 41 l2 0 l31 103 l90 -18 q14 24 39 24 l1 0 q19 0 31.5 -13 q12.5 -13 12.5 -32 q0 -19 -12.5 -32 q-12.5 -13 -31.5 -13 l-1 0 q-17 0 -30 11.5 q-13 11.5 -14 28.5 l-67 14 l-22 -74 q76 -5 125 -40 q15 13 34 13 q20 0 34.5 -14.5 q14.5 -14.5 14.5 -35.5 ZM34 177 q8 23 29 41 q-7 5 -15 5 q-10 0 -17.5 -7.5 q-7.5 -7.5 -7.5 -17.5 q0 -15 11 -21 ZM362.5 351 q-4.5 -5 -4.5 -12 q0 -7 4.5 -12 q4.5 -5 11.5 -5 q7 0 12 5 q5 5 5 12 q0 7 -5 12 q-5 5 -12 5 q-7 0 -11.5 -5 ZM127 160 q0 -14 9.5 -23 q9.5 -9 22.5 -9 q13 0 22.5 9 q9.5 9 9.5 23 q0 13 -9 22 q-9 9 -23 9 q-14 0 -23 -9 q-9 -9 -9 -22 ZM224 48 q48 0 78 30 l-13 12 q-25 -24 -65 -24 q-18 0 -34 6 q-16 6 -23 12 l-7 6 l-13 -12 q30 -30 77 -30 ZM268.5 137 q9.5 -9 22.5 -9 q13 0 22.5 9 q9.5 9 9.5 23 q0 13 -9 22 q-9 9 -23 9 q-14 0 -23 -9 q-9 -9 -9 -22 q0 -14 9.5 -23 ZM415 176 q11 8 11 22 q0 10 -7 17.5 q-7 7.5 -18 7.5 q-8 0 -15 -5 q21 -18 29 -42 Z" /><glyph glyph-name="uniF23C" unicode="&#xf23c;" d="M16.5 95.5 q16.5 16.5 39.5 16.5 q23 0 39.5 -16.5 q16.5 -16.5 16.5 -39.5 q0 -23 -16.5 -39.5 q-16.5 -16.5 -39.5 -16.5 q-23 0 -39.5 16.5 q-16.5 16.5 -16.5 39.5 q0 23 16.5 39.5 ZM28 28 q12 -12 28 -12 q16 0 28 12 q12 12 12 28 q0 16 -12 28 q-12 12 -28 12 q-16 0 -28 -12 q-12 -12 -12 -28 q0 -16 12 -28 ZM0 256 q105 0 180.5 -75.5 q75.5 -75.5 75.5 -180.5 l-80 0 q0 80 -48 128 q-48 48 -128 48 l0 80 ZM240 16 q-3 41 -19 77 q-18 42 -52 76 q-34 34 -76 52 q-37 15 -77 18 l0 -47 q74 -4 123 -53 q49 -49 53 -123 l48 0 ZM0 384 q159 0 271.5 -112.5 q112.5 -112.5 112.5 -271.5 l-80 0 q0 128 -88 216 q-88 88 -216 88 l0 80 ZM227 228 q87 -87 93 -212 l48 0 q-6 143 -107.5 244.5 q-101.5 101.5 -244.5 107.5 l0 -48 q125 -6 211 -92 Z" /><glyph glyph-name="uniF23D" unicode="&#xf23d;" d="M16.5 95.5 q16.5 16.5 39.5 16.5 q23 0 39.5 -16.5 q16.5 -16.5 16.5 -39.5 q0 -23 -16.5 -39.5 q-16.5 -16.5 -39.5 -16.5 q-23 0 -39.5 16.5 q-16.5 16.5 -16.5 39.5 q0 23 16.5 39.5 ZM0 256 q105 0 180.5 -75.5 q75.5 -75.5 75.5 -180.5 l-80 0 q0 80 -48 128 q-48 48 -128 48 l0 80 ZM0 384 q159 0 271.5 -112.5 q112.5 -112.5 112.5 -271.5 l-80 0 q0 128 -88 216 q-88 88 -216 88 l0 80 Z" /><glyph glyph-name="uniF23E" unicode="&#xf23e;" d="M106 352 q-31 0 -52.5 -21.5 q-21.5 -21.5 -21.5 -51.5 q0 -18 10 -36 l6 -11 l-2 -12 q-3 -15 -3 -30 q0 -61 44 -105 q44 -44 107 -44 q14 0 28 3 l11 2 l9 -5 q16 -9 36 -9 q31 0 52.5 21.5 q21.5 21.5 21.5 51.5 q0 16 -8 32 l-5 10 l3 11 q3 15 3 32 q0 61 -44 105 q-43 43 -107 43 q-18 0 -26 -2 l-12 -2 l-10 7 q-19 11 -40 11 ZM106 384 q30 0 56 -16 q10 2 32 2 q76 0 129.5 -52.5 q53.5 -52.5 53.5 -127.5 q0 -23 -4 -39 q11 -22 11 -46 q0 -44 -31 -74.5 q-31 -30.5 -75 -30.5 q-28 0 -50 12 q-16 -3 -34 -3 q-76 0 -129.5 53 q-53.5 53 -53.5 128 q0 12 4 36 q-15 27 -15 53 q0 44 31 74.5 q31 30.5 75 30.5 ZM288 104 q-11 -17 -37 -28 q-23 -10 -58 -10 q-39 0 -65 14 q-19 11 -30 26 q-12 16 -12 33 q0 9 8 17 q7 7 19 7 q10 0 16 -6 q6 -6 10 -15 q4 -9 11 -18 q7 -8 15 -12 q12 -5 27 -5 q22 0 37 10 q13 9 13 22 q0 11 -7 17 q-8 8 -19 11 q-4 2 -34 8 q-26 5 -48 14 q-22 10 -32 23 q-11 14 -11 36 q0 20 12 36 q13 16 36 25 q20 8 54 8 q27 0 42 -5 q20 -7 31 -15 q12 -9 18 -20 q5 -9 5 -21 q0 -10 -7 -17 q-8 -8 -19 -8 q-9 0 -16 5 q-7 7 -11 14 q-9 14 -16 20 q-10 8 -31 8 q-18 0 -31 -8 q-12 -8 -12 -18 q0 -4 4 -10 q6 -6 11 -8 q2 -1 5 -2.5 q3 -1.5 5.5 -2.5 q2.5 -1 4.5 -1 q5 -1 25 -6 q25 -5 40 -10 q22 -7 32 -14 q12 -8 20 -22 q8 -14 8 -32 q0 -20 -13 -40 Z" /><glyph glyph-name="uniF23F" unicode="&#xf23f;" d="M373 151 q11 -22 11 -46 q0 -44 -31 -74.5 q-31 -30.5 -75 -30.5 q-28 0 -50 12 q-16 -3 -34 -3 q-76 0 -129.5 53 q-53.5 53 -53.5 128 q0 12 4 36 q-15 27 -15 53 q0 44 31 74.5 q31 30.5 75 30.5 q31 0 57 -16 q10 2 31 2 q76 0 129.5 -52.5 q53.5 -52.5 53.5 -127.5 q0 -23 -4 -39 ZM288 104 q12 16 12 40 q0 19 -7 32 q-7 13 -21 22 q-11 7 -31 14 q-14 4 -41 10 q-20 5 -25 6 l-15 6 q-3 1 -10 8 q-4 6 -4 10 q0 11 11 18 q11 7 32 7 q23 0 31 -7 q7 -6 16 -20 q4 -7 11 -14 q7 -5 16 -5 q10 0 18 8 q8 8 8 17 q0 10 -6 21 q-7 11 -18 20 q-12 9 -30 15 q-15 5 -43 5 q-33 0 -53 -8 q-23 -9 -36 -25 q-12 -16 -12 -36 q0 -22 11 -36 q10 -13 32 -23 q22 -9 48 -14 q30 -6 34 -8 q11 -3 19 -11 q7 -6 7 -17 q0 -14 -13 -23 q-13 -9 -37 -9 q-15 0 -27 5 q-9 4 -15 11 q-6 8 -11 19 q-4 9 -10 15 q-6 6 -16 6 q-12 0 -19 -7 q-8 -8 -8 -17 q0 -17 12 -33 q11 -15 30 -26 q26 -14 65 -14 q35 0 58 10 q26 11 37 28 Z" /><glyph glyph-name="uniF240" unicode="&#xf240;" d="M193 52 q33 0 63 20 l0 -65 q-34 -15 -48 -18 q-23 -5 -45 -5 q-29 0 -50 7 q-24 9 -38 21 q-15 14 -21 28 q-6 15 -6 44 l0 140 l-48 0 l0 58 q21 7 42 24 q15 12 26 35 q8 16 14 59 l62 0 l0 -112 l96 0 l0 -64 l-96 0 l0 -101 q0 -38 4 -47 q3 -10 14 -16 q12 -8 31 -8 ZM240 17 l0 29 q-25 -10 -47 -10 q-23 0 -40 10 q-14 9 -21 25 q-4 12 -4 52 l0 117 l96 0 l0 32 l-96 0 l0 112 l-32 0 q-4 -29 -14 -50 q-13 -25 -30 -40 q-18 -15 -36 -23 l0 -31 l48 0 l0 -156 q0 -26 4 -38 q3 -9 18 -22 q14 -12 31 -18 q19 -6 46 -6 q19 0 41 5 q16 3 36 12 Z" /><glyph glyph-name="uniF241" unicode="&#xf241;" d="M193 52 q33 0 63 20 l0 -65 q-34 -15 -48 -18 q-23 -5 -45 -5 q-29 0 -50 7 q-24 9 -38 21 q-15 14 -21 28 q-6 15 -6 44 l0 140 l-48 0 l0 58 q21 7 42 24 q15 12 26 35 q8 16 14 59 l62 0 l0 -112 l96 0 l0 -64 l-96 0 l0 -101 q0 -38 4 -47 q3 -10 14 -16 q12 -8 31 -8 Z" /><glyph glyph-name="uniF242" unicode="&#xf242;" d="M472 338 q-18 -28 -48 -50 l0 -12 q0 -105 -75.5 -190.5 q-75.5 -85.5 -200.5 -85.5 q-80 0 -148 44 q16 -2 23 -2 q67 0 120 42 q-31 1 -56 19.5 q-25 18.5 -34 47.5 q12 -2 18 -2 q10 0 26 4 q-33 7 -55.5 33.5 q-22.5 26.5 -22.5 61.5 l0 1 q22 -12 44 -12 q-43 28 -43 81 q0 25 13 48 q77 -95 199 -101 q-2 7 -2 22 q0 41 28 69 q28 28 69 28 q41 0 70 -31 q30 5 62 24 q-10 -35 -43 -54 q31 3 56 15 ZM414 301 q1 1 5.5 4 q4.5 3 5.5 4 l-4 -1 q-4 0 -7 0 q-3 0 -8 0 l-21 5 q14 13 18 17 l11 11 q-2 -1 -7 -2 q-5 -1 -7 -1 l-8 -2 l-6 6 q-24 26 -59 26 q-34 0 -57.5 -24 q-23.5 -24 -23.5 -57 q0 -6 2 -18 l5 -21 l-22 1 q-61 3 -118 32 q-38 19 -75 56 q-2 -12 -2 -19 q0 -43 36 -68 q33 -23 46 -29 l-56 0 q-12 0 -24 3 q6 -21 23 -36.5 q17 -15.5 39 -19.5 l61 -10 l-61 -21 q-10 -3 -21 -3 q25 -34 64 -34 l45 -1 l-35 -28 q-27 -21 -60 -33 q-22 -7 -29 -8 q42 -14 84 -14 q61 0 112 24 q46 21 81 60 q30 33 50 84 q17 46 17 92 l0 12 l-1 8 l7 5 Z" /><glyph glyph-name="uniF243" unicode="&#xf243;" d="M472 338 q-18 -28 -48 -50 l0 -12 q0 -105 -75.5 -190.5 q-75.5 -85.5 -200.5 -85.5 q-80 0 -148 44 q16 -2 23 -2 q67 0 120 42 q-31 1 -56 19.5 q-25 18.5 -34 47.5 q12 -2 18 -2 q10 0 26 4 q-33 7 -55.5 33.5 q-22.5 26.5 -22.5 61.5 l0 1 q22 -12 44 -12 q-43 28 -43 81 q0 25 13 48 q77 -95 199 -101 q-2 7 -2 22 q0 41 28 69 q28 28 69 28 q41 0 70 -31 q30 5 62 24 q-10 -35 -43 -54 q31 3 56 15 Z" /><glyph glyph-name="uniF244" unicode="&#xf244;" d="M445 334 q10 -46 -13 -97 q-19 -42 -51 -87 q-50 -69 -85 -101 q-34 -33 -66 -44 q-12 -5 -27 -5 q-25 0 -44 27 q-18 24 -28 63 q-15 55 -38 134 q-5 14 -15 33 q-3 5 -12 14 q-3 3 -8 3 q-4 0 -9 -3 l-28 -18 l-21 27 l82 71 q30 25 48 27 l8 0 q27 0 42 -22 q12 -19 18 -57 q17 -97 24 -122 q5 -16 12 -29 q6 -10 14 -10 q4 0 11 5 q6 4 10 10 q32 38 48 81 q3 9 3 27 q0 10 -7 17.5 q-7 7.5 -18 8.5 l-7 0 q-15 0 -32 -7 q14 54 54 84 q29 20 67 20 q13 0 27 -4 q34 -12 41 -46 ZM418 244 q20 46 11 87 q-5 25 -30 34 q-9 3 -22 3 q-34 0 -57 -17 q-22 -17 -38 -48 l6 0 l8 0 q17 -1 28 -12.5 q11 -11.5 12 -28.5 q0 -22 -4 -34 q-16 -42 -51 -85 q-1 -1 -5 -6 q-4 -5 -7 -7 q-9 -8 -22 -8 q-16 0 -27 18 q-8 13 -14 32 q-7 23 -19 95 q-1 5 -2.5 14.5 q-1.5 9.5 -2.5 14.5 q-6 37 -16 51 q-11 15 -28 15 l-6 0 q-13 -2 -40 -23 q-1 -1 -12.5 -11 q-11.5 -10 -28.5 -25 q-17 -15 -29 -25 l2 -3 q3 2 8.5 5.5 q5.5 3.5 7.5 4.5 q10 5 18 5 q9 0 18 -7 q12 -11 16 -18 q11 -19 16 -37 q26 -88 38 -133 q10 -36 26 -59 q14 -20 31 -20 q10 0 21 4 q24 8 61 41 q33 30 83 99 q31 41 50 84 Z" /><glyph glyph-name="uniF245" unicode="&#xf245;" d="M445 334 q10 -46 -13 -97 q-19 -42 -51 -87 q-50 -69 -85 -101 q-34 -33 -66 -44 q-44 -16 -71 22 q-18 24 -28 63 q-15 55 -38 134 q-5 14 -15 33 q-3 5 -12 14 q-7 5 -17 0 l-28 -18 l-21 27 l82 71 q30 25 48 27 q32 5 50 -22 q12 -19 18 -57 q18 -105 23 -122 q4 -12 13 -29 q11 -17 25 -5 q6 4 10 10 q32 38 48 81 q3 9 3 27 q0 10 -7 17.5 q-7 7.5 -18 8.5 q-18 1 -39 -7 q14 54 54 84 q21 15 49.5 19 q28.5 4 44.5 -3 q34 -12 41 -46 Z" /><glyph glyph-name="uniF246" unicode="&#xf246;" d="M432 167 l-216 0 l0 -149 l216 -32 l0 181 ZM448 183 l0 -215 l-248 36 l0 179 l248 0 ZM168 167 l-152 0 l0 -120 l152 -22 l0 142 ZM184 183 l0 -177 l-184 27 l0 150 l184 0 ZM432 398 l-216 -31 l0 -152 l216 0 l0 183 ZM448 416 l0 -217 l-248 0 l0 182 l248 35 ZM168 360 l-152 -22 l0 -123 l152 0 l0 145 ZM184 378 l0 -179 l-184 0 l0 153 l184 26 Z" /><glyph glyph-name="uniF247" unicode="&#xf247;" d="M448 183 l0 -215 l-248 36 l0 179 l248 0 ZM184 183 l0 -177 l-184 27 l0 150 l184 0 ZM448 416 l0 -217 l-248 0 l0 182 l248 35 ZM184 378 l0 -179 l-184 0 l0 153 l184 26 Z" /><glyph glyph-name="uniF248" unicode="&#xf248;" d="M56 328 q56 56 136 56 q80 0 136 -56 q56 -56 56 -136 q0 -10 -2 -26 q-9 -64 -55 -110 q-46 -46 -110 -54 q-16 -2 -25 -2 q-80 0 -136 56 q-56 56 -56 136 q0 80 56 136 ZM19 192 q0 -50 27 -92 q27 -42 71 -63 l-83 225 q-15 -32 -15 -70 ZM214 21 q24 4 35 8 q0 1 -1 3 l-53 145 l-33 -96 l-19 -55 q21 -7 49 -7 q8 0 22 2 ZM216 273 l62 -186 l17 58 q13 32 13 56 q0 23 -14 47 q-17 26 -17 41 q0 12 8.5 21 q8.5 9 20.5 9 l2 0 q-50 45 -116 45 q-93 0 -144 -77 q2 0 6 -0.5 q4 -0.5 5 -0.5 l46 3 q4 0 6 -3.5 q2 -3.5 0.5 -7.5 q-1.5 -4 -5.5 -4 q-10 -1 -20 -1 l63 -187 l38 113 l-27 74 l-18 1 q-4 0 -5.5 4 q-1.5 4 0.5 7.5 q2 3.5 6 3.5 q28 -3 45 -3 l46 3 q4 0 6.5 -3.5 q2.5 -3.5 1 -7.5 q-1.5 -4 -5.5 -4 q-10 -1 -20 -1 ZM279 43 q73 42 84 125 q2 16 2 24 q0 44 -22 83 q1 -6 1 -18 q0 -29 -13 -62 l-39 -113 l-13 -39 Z" /><glyph glyph-name="uniF249" unicode="&#xf249;" d="M195 177 l53 -146 q0 -1 9 -19 q-1 0 -4 -1 q-3 -1 -4 -2 q-20 -6 -32 -7 q-16 -2 -25 -2 q-26 0 -50 6 q-1 0 -2.5 1 q-1.5 1 -2.5 1 l25 73 l33 96 ZM17 268 q3 0 7 -0.5 q4 -0.5 8 -0.5 l93 -255 q-1 0 -3.5 1 q-2.5 1 -4.5 2 q-48 20 -79.5 62.5 q-31.5 42.5 -36.5 95.5 q-1 6 -1 19 q0 37 17 76 ZM366 273 q18 -39 18 -81 q0 -10 -2 -26 q-7 -48 -35.5 -87.5 q-28.5 -39.5 -71.5 -59.5 q-1 -1 -2.5 -1 q-1.5 0 -2.5 -1 l22 65 l39 113 q13 33 13 62 l0 19 q-1 17 -9.5 30.5 q-8.5 13.5 -26.5 12.5 l-2 0 q-12 0 -20.5 -9 q-8.5 -9 -8.5 -21 q0 -15 17 -41 q14 -24 14 -47 q0 -24 -13 -56 l-17 -58 l-62 186 l20 1 q4 0 5.5 4 q1.5 4 -1 7.5 q-2.5 3.5 -6.5 3.5 q-28 -3 -46 -3 l-45 3 q-4 0 -6 -3.5 q-2 -3.5 -0.5 -7.5 q1.5 -4 5.5 -4 q9 -1 18 -1 l27 -74 l-38 -113 l-63 187 l20 2 q4 0 5.5 4 q1.5 4 -0.5 7 q-2 3 -6 3 q-28 -2 -46 -2 l-34 0 q5 9 17 25 q57 72 150 72 q35 0 69 -13 q50 -19 85 -65 q1 -1 2.5 -3.5 q1.5 -2.5 2.5 -3.5 q8 -11 15 -26 Z" /><glyph glyph-name="uniF24A" unicode="&#xf24a;" d="M289 380 q18 0 31 4 l-128 -213 l0 -171 q-10 4 -32 4 q-22 0 -32 -4 l0 171 l-128 213 q10 -4 32 -4 q22 0 32 4 l96 -160 l96 160 q10 -4 33 -4 ZM178 180 l111 184 l-1 0 q-15 0 -24 2 l-90 -150 l-14 -23 l-14 23 l-89 150 q-9 -2 -25 -2 l-1 0 l111 -184 l2 -4 l0 -5 l0 -151 l16 0 l16 0 l0 151 l0 5 l2 4 Z" /><glyph glyph-name="uniF24B" unicode="&#xf24b;" d="M289 380 q18 0 31 4 l-128 -213 l0 -171 q-10 4 -32 4 q-22 0 -32 -4 l0 171 l-128 213 q10 -4 32 -4 q22 0 32 4 l96 -160 l96 160 q10 -4 33 -4 Z" /><glyph glyph-name="uniF24C" unicode="&#xf24c;" d="M265 352 l-9 0 l-9 0 q-68 0 -168 -4 l-1 0 l-1 0 q-17 0 -29.5 -14.5 q-12.5 -14.5 -12.5 -34.5 l0 -1 l0 -1 q-3 -51 -3 -105 l0 0 q0 -53 3 -104 l0 -2 l0 -1 q0 -20 14 -36 q12 -13 28 -13 l1 0 l1 0 q104 -4 166 -4 l11 0 l0 0 l11 0 q60 0 166 4 l1 0 l1 0 q16 0 28 13 q14 16 14 36 l0 1 l0 2 q3 51 3 104 l0 0 q0 54 -3 105 l0 1 l0 2 q0 20 -12.5 34.5 q-12.5 14.5 -29.5 14.5 l-1 0 l-1 0 q-73 3 -168 3 ZM265 384 q115 0 170 -3 q31 0 52.5 -23.5 q21.5 -23.5 21.5 -57.5 q3 -54 3 -108 q0 -53 -3 -107 q0 -34 -21.5 -57.5 q-21.5 -23.5 -52.5 -23.5 q-73 -4 -168 -4 l-11 0 l-11 0 q-95 0 -168 4 q-31 0 -52.5 23.5 q-21.5 23.5 -21.5 57.5 q-3 54 -3 107 q0 35 4 107 q0 34 21 58 q21 24 52 24 q83 3 170 3 l9 0 l9 0 ZM207 94 l0 197 l145 -99 l-145 -98 Z" /><glyph glyph-name="uniF24D" unicode="&#xf24d;" d="M509 299 q3 -54 3 -107 q0 -53 -3 -107 q0 -34 -21.5 -57.5 q-21.5 -23.5 -52.5 -23.5 q-77 -4 -179 -4 q-102 0 -179 4 q-31 0 -52.5 23.5 q-21.5 23.5 -21.5 57.5 q-3 54 -3 107 q0 35 4 107 q0 34 21 57.5 q21 23.5 52 23.5 q73 4 170 4 l9 0 l9 0 q97 0 170 -4 q31 0 52.5 -23.5 q21.5 -23.5 21.5 -57.5 ZM207 94 l145 98 l-145 99 l0 -197 Z" /><glyph glyph-name="uniF24E" unicode="&#xf24e;" d="M448 248 l-139 -104 l55 -176 l-140 112 l-140 -112 l55 176 l-139 104 l172 0 l52 168 l53 -168 l171 0 Z" /><glyph glyph-name="uniF24F" unicode="&#xf24f;" d="M373 384 q11 0 11 -11 l0 -362 q0 -11 -11 -11 l-362 0 q-11 0 -11 11 l0 362 q0 11 11 11 l362 0 Z" /><glyph glyph-name="uniF250" unicode="&#xf250;" d="M24 195 q-18 9 -18 29 q0 22 20 30 q-6 8 -6 19 q0 22 20 30 q-5 8 -5 17 q0 13 8 19 q8 6 27 11 q53 13 126 9 q10 0 37.5 -3.5 q27.5 -3.5 38.5 -3.5 l0 32 l112 0 l0 -240 l-112 0 l0 16 q-29 -2 -40 -14 q-40 -42 -40 -108 q0 -30 -4 -34 q-10 -10 -28 3 q-18 13 -24 34 q-3 12 -4 25 q-1 13 0 21.5 q1 8.5 3 21.5 q2 13 2 19 l-103 0 q-14 0 -24 10 q-10 10 -10 24 q0 26 24 33 ZM352 336 q0 16 -16 16 q-16 0 -16 -16 q0 -16 16 -16 q16 0 16 16 Z" /><glyph glyph-name="uniF251" unicode="&#xf251;" d="M360 189 q18 -9 18 -29 q0 -22 -20 -30 q6 -8 6 -19 q0 -22 -20 -30 q5 -8 5 -17 q0 -13 -8 -19 q-8 -6 -27 -11 q-53 -13 -126 -9 q-10 0 -37.5 3.5 q-27.5 3.5 -38.5 3.5 l0 -32 l-112 0 l0 240 l112 0 l0 -16 q29 2 40 14 q40 42 40 108 q0 30 4 34 q10 10 28 -3 q18 -13 24 -34 q3 -12 4 -25 q1 -13 0 -21.5 q-1 -8.5 -3 -21.5 q-2 -13 -2 -19 l103 0 q14 0 24 -10 q10 -10 10 -24 q0 -26 -24 -33 ZM32 48 q0 -16 16 -16 q16 0 16 16 q0 16 -16 16 q-16 0 -16 -16 Z" /><glyph glyph-name="uniF252" unicode="&#xf252;" d="M261 320 l91 0 l0 -32 l-9 0 q-5 -1 -8 -4 l-4 -9 l-19 -241 q-1 -13 -1.5 -18 q-0.5 -5 -4.5 -9.5 q-4 -4.5 -10.5 -5.5 q-6.5 -1 -19.5 -1 l-200 0 q-13 0 -19.5 1 q-6.5 1 -10.5 5.5 q-4 4.5 -4.5 9.5 q-0.5 5 -1.5 18 l-19 242 q-1 6 -4 9 l-8 3 l-9 0 l0 32 l91 0 l0 29 q0 15 9.5 25 q9.5 10 24.5 10 l101 0 q15 0 25 -10.5 q10 -10.5 10 -24.5 l0 -29 ZM112 349 l0 -29 l128 0 l0 29 q0 15 -19 15 l-91 0 q-18 0 -18 -15 ZM104 64 l20 0 l-10 192 l-21 0 l11 -192 ZM187 64 l0 192 l-22 0 l0 -192 l22 0 ZM249 64 l10 192 l-20 0 l-11 -192 l21 0 Z" /><glyph glyph-name="uniF253" unicode="&#xf253;" d="M318 315 q-4 -11 -7 -11 l-302 0 q-8 0 -8.5 1 q-0.5 1 1.5 10 l4 13 q3 8 19 11 l53 7 q7 1 10 7 q2 5 4.5 11 q2.5 6 3.5 9 q1 3 3 6 q2 3 4 4 q2 1 5 1 l103 0 q3 0 5 -1 q2 -1 4 -4.5 q2 -3.5 3.5 -6 q1.5 -2.5 4 -9 q2.5 -6.5 4.5 -10.5 q3 -6 10 -7 l53 -6 q16 -3 19 -11 q2 -5 4 -14 ZM283 272 q12 0 15 -2.5 q3 -2.5 2 -12.5 l-19 -242 q-1 -7 -2 -9.5 q-1 -2.5 -4.5 -4 q-3.5 -1.5 -10.5 -1.5 l-208 0 q-11 0 -13 2.5 q-2 2.5 -4 12.5 l-19 242 q-1 9 2 12 q3 3 15 3 l246 0 Z" /><glyph glyph-name="uniF254" unicode="&#xf254;" d="M22 -32 q-9 0 -15.5 6.5 q-6.5 6.5 -6.5 15.5 l0 212 q0 9 6.5 15.5 q6.5 6.5 15.5 6.5 l3 0 l19 0 l0 31 q0 69 43 115 q43 46 105 46 l0 0 q62 0 105 -46 q29 -30 39 -82 l-53 0 q-8 30 -24 47 l0 1 q-27 29 -67 29 l0 0 q-40 0 -67 -29 l0 -1 q-28 -30 -28 -80 l0 -31 l265 0 q9 0 15.5 -6.5 q6.5 -6.5 6.5 -15.5 l0 -212 q0 -9 -6.5 -15.5 q-6.5 -6.5 -15.5 -6.5 l-340 0 Z" /><glyph glyph-name="uniF255" unicode="&#xf255;" d="M366 215 q34 0 58 -24.5 q24 -24.5 24 -58.5 q0 -35 -24 -59.5 q-24 -24.5 -58 -24.5 l-110 0 l0 80 l48 0 l-80 84 l-80 -84 l48 0 l0 -80 l-102 0 q-37 0 -63.5 27 q-26.5 27 -26.5 64 q0 30 17 53.5 q17 23.5 44 32.5 q4 22 20.5 36.5 q16.5 14.5 38.5 14.5 q12 0 26 -7 q14 30 42.5 48.5 q28.5 18.5 62.5 18.5 q48 0 81.5 -34.5 q33.5 -34.5 33.5 -83.5 l0 -3 Z" /><glyph glyph-name="uniF256" unicode="&#xf256;" d="M335 263 l0 -66 l113 35 l0 -89 l0 -88 l-113 35 l0 -65 q0 -9 -9 -9 l-317 0 q-9 0 -9 9 l0 12 l0 55 l0 171 q0 9 9 9 l208 0 l0 38 q0 3 -3.5 6.5 q-3.5 3.5 -6.5 3.5 l-176 0 l0 48 l178 0 q27 0 46 -19 q19 -19 19 -45 l0 -32 l52 0 q9 0 9 -9 ZM226 107 q15 0 25.5 10.5 q10.5 10.5 10.5 25.5 q0 15 -10.5 25 q-10.5 10 -25.5 10 q-15 0 -25.5 -10 q-10.5 -10 -10.5 -25 q0 -15 11 -26 l-68 0 q11 11 11 26 q0 15 -10.5 25.5 q-10.5 10.5 -25.5 10.5 q-15 0 -25.5 -10.5 q-10.5 -10.5 -10.5 -25.5 q0 -15 10.5 -25.5 q10.5 -10.5 25.5 -10.5 l12 0 l95 0 l11 0 Z" /><glyph glyph-name="uniF257" unicode="&#xf257;" d="M199 40 l-95 88 l-104 0 l0 128 l104 0 l95 88 l0 -304 ZM255 92 l-20 16 q27 38 27 84 q0 46 -27 84 l20 16 q33 -46 33 -100 q0 -54 -33 -100 ZM322 46 l-21 16 q43 57 43 130 q0 73 -43 130 l21 16 q48 -66 48 -146 q0 -80 -48 -146 ZM365 369 l20 15 q63 -87 63 -192 q0 -105 -63 -192 l-20 15 q58 79 58 177 q0 98 -58 177 Z" /><glyph glyph-name="uniF258" unicode="&#xf258;" d="M199 40 l-95 88 l-104 0 l0 128 l104 0 l95 88 l0 -304 ZM255 92 l-20 16 q28 40 28 84 q0 44 -28 84 l20 16 q33 -46 33 -100 q0 -54 -33 -100 Z" /><glyph glyph-name="uniF259" unicode="&#xf259;" d="M199 40 l-95 88 l-104 0 l0 128 l104 0 l95 88 l0 -304 ZM255 92 l-20 16 q28 40 28 84 q0 44 -28 84 l20 16 q33 -46 33 -100 q0 -54 -33 -100 ZM322 46 l-21 16 q43 57 43 130 q0 73 -43 130 l21 16 q48 -66 48 -146 q0 -80 -48 -146 Z" /><glyph glyph-name="uniF25A" unicode="&#xf25a;" d="M224 231 l47 51 l0 -180 l-47 51 l-65 0 l0 78 l65 0 ZM332 388 q53 -29 84.5 -81.5 q31.5 -52.5 31.5 -114.5 q0 -93 -65.5 -158.5 q-65.5 -65.5 -158.5 -65.5 q-57 0 -108 27 l-1 1 q-52 29 -83.5 81.5 q-31.5 52.5 -31.5 114.5 q0 93 65.5 158.5 q65.5 65.5 158.5 65.5 q57 0 107 -28 l1 0 ZM362 93 q33 46 33 99 q0 49 -25.5 89.5 q-25.5 40.5 -66.5 61.5 q-14 7 -17 8 q-30 11 -62 11 q-54 0 -99 -32 l73 -74 l-76 0 l-36 35 q-32 -45 -32 -99 q0 -48 24.5 -88 q24.5 -40 65.5 -62 q16 -8 19 -9 q30 -11 61 -11 q55 0 100 32 l-20 20 l0 77 l58 -58 Z" /><glyph glyph-name="uniF25B" unicode="&#xf25b;" d="M175 409 q20 -21 40 -46 q20 -25 46.5 -64 q26.5 -39 42.5 -86 q16 -47 16 -92 q0 -64 -47 -108.5 q-47 -44.5 -113 -44.5 q-42 0 -77.5 18.5 q-35.5 18.5 -56.5 50.5 q-8 13 -15 29 q-11 27 -11 55 l0 4 q1 84 64 183 q20 31 59 77 q18 20 22 24 l1 1 q8 6 14 6 q6 0 14 -6 l1 -1 ZM160 24 q41 0 70.5 29.5 q29.5 29.5 29.5 70.5 q0 21 -8 40 q-13 -49 -50 -84.5 q-37 -35.5 -86 -45.5 q22 -10 44 -10 Z" /><glyph glyph-name="uniF25C" unicode="&#xf25c;" d="M10 268 q90 84 214 84 q124 0 214 -84 l10 -10 l-10 -9 l-32 -32 l-10 -10 l-9 9 q-69 64 -163 64 q-94 0 -163 -64 l-9 -9 l-10 10 l-32 32 l-10 9 l10 10 ZM365 192 l11 -10 l-10 -10 l-33 -32 l-9 -9 l-10 8 q-40 35 -90 35 q-50 0 -90 -35 l-10 -8 l-9 9 l-33 32 l-10 10 l11 10 q57 51 132 54 l9 0 l0 0 q81 0 141 -54 ZM224 32 l-10 10 l-52 52 l-11 10 l12 10 q31 20 61 20 q35 0 62 -20 l11 -10 l-10 -10 l-53 -52 l-10 -10 Z" /><glyph glyph-name="uniF25D" unicode="&#xf25d;" d="M30 299 q3 11 14 22 q11 11 28 12 l48 0 q16 -1 27 -11.5 q11 -10.5 15 -22.5 l29 -104 q3 -11 -2.5 -17.5 q-5.5 -6.5 -13.5 -4.5 q-8 2 -11 12 l-26 96 l-9 0 l46 -169 l-43 0 l0 -127 q0 -11 -8 -15.5 q-8 -4.5 -15.5 0 q-7.5 4.5 -7.5 15.5 l0 127 l-10 0 l0 -127 q0 -11 -8 -15.5 q-8 -4.5 -16 0 q-8 4.5 -8 15.5 l0 127 l-42 0 l45 169 l-7 0 l-27 -96 q-3 -10 -11 -12 q-8 -2 -13.5 4.5 q-5.5 6.5 -2.5 17.5 l29 104 ZM122 405.5 q11 -10.5 11 -26.5 q0 -16 -11 -26.5 q-11 -10.5 -26 -10.5 q-15 0 -26 10.5 q-11 10.5 -11 26.5 q0 16 11 26.5 q11 10.5 26 10.5 q15 0 26 -10.5 Z" /><glyph glyph-name="uniF25E" unicode="&#xf25e;" d="M178 238 l64 64 l-50 50 l128 0 l0 -128 l-50 50 l-64 -64 l-28 28 ZM178 146 l28 28 l64 -64 l50 50 l0 -128 l-128 0 l50 50 l-64 64 ZM142 146 l-64 -64 l50 -50 l-128 0 l0 128 l50 -50 l64 64 l28 -28 ZM142 238 l-28 -28 l-64 64 l-50 -50 l0 128 l128 0 l-50 -50 l64 -64 Z" /><glyph glyph-name="uniF25F" unicode="&#xf25f;" d="M0 64 l0 160 l61 -61 l131 141 l107 -112 l149 128 l-149 -203 l-107 107 l-94 -98 l62 -62 l-160 0 Z" /><glyph glyph-name="uniF260" unicode="&#xf260;" d="M288 64 l62 62 l-94 98 l-107 -107 l-149 203 l149 -128 l107 112 l131 -141 l61 61 l0 -160 l-160 0 Z" /><glyph glyph-name="uniF261" unicode="&#xf261;" d="M160 320 l-62 -62 l94 -98 l107 107 l149 -203 l-149 128 l-107 -112 l-131 141 l-61 -61 l0 160 l160 0 Z" /><glyph glyph-name="uniF262" unicode="&#xf262;" d="M288 320 l160 0 l0 -160 l-61 61 l-131 -141 l-107 112 l-149 -128 l149 203 l107 -107 l94 98 l-62 62 Z" /><glyph glyph-name="uniF263" unicode="&#xf263;" d="M448 192 l-96 -96 l0 76 l-109 0 l1 -108 l76 0 l-96 -96 l-96 96 l76 0 l0 108 l-108 0 l0 -76 l-96 96 l96 96 l0 -76 l108 0 l0 108 l-76 0 l96 96 l96 -96 l-76 0 l0 -108 l108 0 l0 76 l96 -96 Z" /><glyph glyph-name="uniF264" unicode="&#xf264;" d="M192 352 l128 0 l0 -128 l-50 50 l-9 -9 l-183 -183 l50 -50 l-128 0 l0 128 l50 -50 l128 128 l64 64 l-50 50 Z" /><glyph glyph-name="uniF265" unicode="&#xf265;" d="M128 352 l0 -64 l248 0 q8 0 8 -8 l0 -240 q0 -8 -8 -8 l-304 0 q-8 0 -8 8 l0 48 q0 8 8 8 l248 0 l0 128 l-192 0 l0 -64 l-128 96 l128 96 Z" /><glyph glyph-name="uniF266" unicode="&#xf266;" d="M384 256 l-128 -96 l0 64 l-192 0 l0 -128 l248 0 q8 0 8 -8 l0 -48 q0 -8 -8 -8 l-304 0 q-8 0 -8 8 l0 240 q0 8 8 8 l248 0 l0 64 l128 -96 Z" /><glyph glyph-name="uniF267" unicode="&#xf267;" d="M384 356 l-82 -82 l50 -50 l-128 0 l0 128 l50 -50 l82 82 l28 -28 ZM384 28 l-28 -28 l-82 82 l-50 -50 l0 128 l128 0 l-50 -50 l82 -82 ZM0 28 l82 82 l-50 50 l128 0 l0 -128 l-50 50 l-82 -82 l-28 28 ZM0 356 l28 28 l82 -82 l50 50 l0 -128 l-128 0 l50 50 l-82 82 Z" /><glyph glyph-name="uniF268" unicode="&#xf268;" d="M0 120 q0 8 8 8 l248 0 l0 64 l128 -96 l-128 -96 l0 64 l-248 0 q-8 0 -8 8 l0 48 ZM384 264 q0 -8 -8 -8 l-248 0 l0 -64 l-128 96 l128 96 l0 -64 l248 0 q8 0 8 -8 l0 -48 Z" /><glyph glyph-name="uniF269" unicode="&#xf269;" d="M80 256 l240 0 l0 -224 q0 -16 -16 -16 l-208 0 q-16 0 -16 16 l0 224 ZM296 104 l0 48 q0 8 -8 8 q-8 0 -8 -8 l0 -48 q0 -8 8 -8 q8 0 8 8 ZM280 184 q0 -8 8 -8 q8 0 8 8 q0 8 -8 8 q-8 0 -8 -8 ZM381 416 q3 0 3 -3 q0 -1 -1 -2 q-1 -1 -1.5 -1.5 q-0.5 -0.5 -0.5 -1.5 q-13 -26 -13 -40 l0 -336 q0 -26 -19 -45 q-19 -19 -45 -19 l-208 0 q-26 0 -45 19 q-19 19 -19 45 l0 307 q0 24 -4.5 29 q-4.5 5 -27.5 8 q0 14 15 27 q15 13 50 13 l316 0 ZM336 368 q0 16 1 16 l-273 0 q-3 0 -4 -1 q4 -6 4 -44 l0 -307 q0 -14 9 -23 q9 -9 23 -9 l210 0 q13 0 21.5 9 q8.5 9 8.5 23 l0 336 Z" /><glyph glyph-name="uniF26A" unicode="&#xf26a;" d="M384 288 q26 0 45 -19 q19 -19 19 -45 l0 -96 q0 -26 -19 -45 q-19 -19 -45 -19 l-32 0 l0 -80 q0 -16 -16 -16 l-256 0 q-16 0 -16 16 l0 223 q-20 0 -34 14.5 q-14 14.5 -14 33.5 l0 54 l0 1 q-16 18 -16 42 q0 26 19 45 q19 19 45 19 q26 0 46 -20 q17 20 43 20 q19 0 37 -14 q19 14 42 14 q27 0 46 -16 q18 16 42 16 q26 0 45 -19 q19 -19 19 -45 q0 -17 -10 -31 q-10 -14 -22 -17 l0 -16 l32 0 ZM296 144 q8 0 8 8 l0 48 q0 8 -8 8 q-8 0 -8 -8 l0 -48 q0 -5 4 -7 q1 -1 4 -1 ZM303 220 q1 2 1 6 q0 4 -3 5 q-2 1 -6 1 q-3 0 -5 -4 q-2 -4 -2 -6 q0 -3 4 -5 q2 -1 6 -1 q3 0 5 4 ZM320 288 l0 32 l-20 0 q-5 -14 -13 -23 q-20 -25 -55 -25 q-40 0 -61 33 q-9 -3 -18 -3 q-17 0 -32 10 q-1 0 -2.5 2 q-1.5 2 -2.5 2 q0 -1 -1 -2.5 q-1 -1.5 -2 -2.5 q-5 -6 -17 -14 l0 -32 l0 -9 l80 0 q0 8 8 8 q8 0 8 -8 l128 0 l0 32 ZM351 343 q1 3 1 9 q0 14 -9 23 q-9 9 -23 9 q-13 0 -23 -10 q-5 -5 -16 -6 l-8 0 q-11 2 -14 5 q-11 11 -27 11 q-12 0 -25 -9 l-7 -7 q0 -1 -1 -2 q-5 -5 -11 -5 q-5 0 -11 6 q-1 1 -2 2.5 q-1 1.5 -1 2.5 q-1 2 -5 6 q-6 6 -16 6 q-9 0 -25 -16 q-5 -6 -17 -6 q-12 0 -17 6 q-14 16 -30 16 q-14 0 -23 -9 q-9 -9 -9 -23 q0 -1 0.5 -3.5 q0.5 -2.5 0.5 -3.5 q3 -15 15 -21 l0 -34 l0 -35 q0 -16 16 -16 l0 26 l0 23 l0 32 q15 0 24 11 q2 2 4 6 q6 10 12 11 q22 4 30 -5 q7 -9 19 -9 q3 0 7 2 q8 2 9 4 q6 4 10 4 q11 0 14 -10 q1 -1 1 -2 q2 -7 3 -8 q12 -20 35 -20 q21 0 32 16 q8 11 8 24 q0 4 2 6 q2 2 4 2 l3 0 l7 0 l48 0 q12 0 15 -9 ZM416 128 l0 96 q0 14 -9 23 q-9 9 -23 9 l-32 0 l0 -160 l32 0 q14 0 23 9 q9 9 9 23 ZM136 272 q-8 0 -8 8 q0 8 8 8 q8 0 8 -8 q0 -8 -8 -8 ZM296 272 q-8 0 -8 8 q0 8 8 8 q8 0 8 -8 q0 -8 -8 -8 Z" /><glyph glyph-name="uniF26B" unicode="&#xf26b;" d="M184 384 q8 0 8 -8 l0 -56 l-192 0 l0 56 q0 8 8 8 l176 0 ZM0 0 l0 304 l192 0 l0 -304 l-96 96 l-96 -96 Z" /><glyph glyph-name="uniF26C" unicode="&#xf26c;" d="M240 176 l0 8 l208 0 l0 -176 q0 -8 -8 -8 l-432 0 q-8 0 -8 8 l0 176 l208 0 l0 -8 l32 0 ZM440 304 q8 0 8 -8 l0 -96 l-208 0 l0 8 l-32 0 l0 -8 l-208 0 l0 96 q0 8 8 8 l120 0 l0 31 q1 21 15 35 q14 14 36 14 l90 0 q22 0 36 -14 q14 -14 15 -35 l0 -31 l120 0 ZM288 332 l0 1 q0 7 -6 13 q-6 6 -13 6 l-90 0 q-7 0 -13 -6 q-6 -6 -6 -13 l0 -1 l0 -1 l0 -27 l128 0 l0 27 l0 1 Z" /><glyph glyph-name="uniF26D" unicode="&#xf26d;" d="M304 416 q16 0 16 -16 l0 -416 q0 -16 -16 -16 l-288 0 q-16 0 -16 16 l0 416 q0 16 16 16 l288 0 ZM48 240 l0 -32 l32 0 l0 32 l-32 0 ZM48 176 l0 -32 l32 0 l0 32 l-32 0 ZM48 112 l0 -32 l32 0 l0 32 l-32 0 ZM144 16 l0 32 l-96 0 l0 -32 l96 0 ZM144 80 l0 32 l-32 0 l0 -32 l32 0 ZM144 144 l0 32 l-32 0 l0 -32 l32 0 ZM144 208 l0 32 l-32 0 l0 -32 l32 0 ZM208 16 l0 32 l-32 0 l0 -32 l32 0 ZM208 80 l0 32 l-32 0 l0 -32 l32 0 ZM208 144 l0 32 l-32 0 l0 -32 l32 0 ZM208 208 l0 32 l-32 0 l0 -32 l32 0 ZM272 16 l0 96 l-32 0 l0 -96 l32 0 ZM272 144 l0 32 l-32 0 l0 -32 l32 0 ZM272 208 l0 32 l-32 0 l0 -32 l32 0 ZM272 288 l0 80 l-224 0 l0 -80 l224 0 Z" /><glyph glyph-name="uniF26E" unicode="&#xf26e;" d="M65.5 350.5 q65.5 65.5 158.5 65.5 q93 0 158.5 -65.5 q65.5 -65.5 65.5 -158.5 q0 -93 -65.5 -158.5 q-65.5 -65.5 -158.5 -65.5 q-93 0 -158.5 65.5 q-65.5 65.5 -65.5 158.5 q0 93 65.5 158.5 ZM327 30 q17 10 33 26 q16 16 26 33 l-27 16 l8 14 l27 -16 q21 40 22 81 l-32 0 l0 16 l32 0 q-1 41 -22 81 l-27 -16 l-8 14 l27 16 q-10 17 -26 33 q-16 16 -33 26 l-16 -27 l-14 8 l16 27 q-40 21 -81 22 l0 -32 l-16 0 l0 32 q-41 -1 -81 -22 l16 -27 l-14 -8 l-16 27 q-17 -10 -33 -26 q-16 -16 -26 -33 l27 -16 l-8 -14 l-27 16 q-21 -40 -22 -81 l32 0 l0 -16 l-32 0 q1 -41 22 -81 l27 16 l8 -14 l-27 -16 q10 -17 26 -33 q16 -16 33 -26 l16 27 l14 -8 l-16 -27 q40 -21 81 -22 l0 32 l16 0 l0 -32 q41 1 81 22 l-16 27 l14 8 l16 -27 ZM368 207 l0 -32 l-117 0 q-10 -15 -27 -15 q-14 0 -23 9 q-9 9 -9 23 q0 18 16 28 l0 68 l32 0 l0 -68 q7 -4 12 -13 l116 0 Z" /><glyph glyph-name="uniF26F" unicode="&#xf26f;" d="M299 164 l-63 -63 l-1 -1 l-2 -1 l-1 -1 l-2 -1 l-1 0 l-1 0 l-2 -1 l-2 0 l-2 0 l-2 1 l-1 0 l-1 0 l-2 1 l-1 1 q-1 1 -1 1 q-2 0 -2 1 l-63 63 q-11 12 0 23 q5 5 12 5 q7 0 12 -5 l35 -34 l0 118 q0 7 4.5 12 q4.5 5 11.5 5 q7 0 11.5 -5 q4.5 -5 4.5 -12 l0 -118 l35 34 q5 5 12 5 q7 0 12 -5 q11 -11 0 -23 ZM153 63 q-7 -7 -17 -7 q-10 0 -17 7 l-112 112 q-7 7 -7 17 q0 10 7 17 l112 112 q7 7 17 7 q10 0 17 -7 q7 -7 7 -17 q0 -10 -7 -17 l-95 -95 l95 -95 q7 -7 7 -17 q0 -10 -7 -17 ZM329 63 q-7 -7 -17 -7 q-10 0 -17 7 q-7 7 -7 17 q0 10 7 17 l95 95 l-95 95 q-7 7 -7 17 q0 10 7 17 q7 7 17 7 q10 0 17 -7 l112 -112 q7 -7 7 -17 q0 -10 -7 -17 l-112 -112 Z" /><glyph glyph-name="uniF270" unicode="&#xf270;" d="M152 168 q-24 0 -24 24 q0 24 24 24 q24 0 24 -24 q0 -24 -24 -24 ZM224 168 q-24 0 -24 24 q0 24 24 24 q24 0 24 -24 q0 -24 -24 -24 ZM296 168 q-24 0 -24 24 q0 24 24 24 q24 0 24 -24 q0 -24 -24 -24 ZM153 63 q-7 -7 -17 -7 q-10 0 -17 7 l-112 112 q-7 7 -7 17 q0 10 7 17 l112 112 q7 7 17 7 q10 0 17 -7 q7 -7 7 -17 q0 -10 -7 -17 l-95 -95 l95 -95 q7 -7 7 -17 q0 -10 -7 -17 ZM329 63 q-7 -7 -17 -7 q-10 0 -17 7 q-7 7 -7 17 q0 10 7 17 l95 95 l-95 95 q-7 7 -7 17 q0 10 7 17 q7 7 17 7 q10 0 17 -7 l112 -112 q7 -7 7 -17 q0 -10 -7 -17 l-112 -112 Z" /><glyph glyph-name="uniF271" unicode="&#xf271;" d="M153 63 q-7 -7 -17 -7 q-10 0 -17 7 l-112 112 q-7 7 -7 17 q0 10 7 17 l112 112 q7 7 17 7 q10 0 17 -7 q7 -7 7 -17 q0 -10 -7 -17 l-95 -95 l95 -95 q7 -7 7 -17 q0 -10 -7 -17 ZM329 63 q-7 -7 -17 -7 q-10 0 -17 7 q-7 7 -7 17 q0 10 7 17 l95 95 l-95 95 q-7 7 -7 17 q0 10 7 17 q7 7 17 7 q10 0 17 -7 l112 -112 q7 -7 7 -17 q0 -10 -7 -17 l-112 -112 Z" /><glyph glyph-name="uniF272" unicode="&#xf272;" d="M319 191 q28 -5 46.5 -27.5 q18.5 -22.5 18.5 -51.5 q0 -30 -21 -54 q-23 -26 -61 -26 q-13 0 -25 3 q-4 1 -15 5 q-10 -13 -32 -33 q-7 -7 -19 -7 l-102 0 q-12 0 -19 7 q-41 36 -62 86 q-28 67 -28 111 q0 14 3 17 q3 3 13 3 l101 0 q-2 6 -19.5 18.5 q-17.5 12.5 -17.5 27.5 q0 12 8.5 22.5 q8.5 10.5 19.5 14.5 q-3 -12 -3 -21 q0 -9 19.5 -25 q19.5 -16 19.5 -28 q0 -6 -1 -9 l56 0 q2 10 2 14 q0 15 -14 26 q-14 11 -28 24.5 q-14 13.5 -14 33.5 q0 21 13.5 39 q13.5 18 33.5 23 q-9 -32 -9 -35 q0 -15 28.5 -41.5 q28.5 -26.5 28.5 -46.5 q0 -16 -12 -37 l76 0 q6 0 8 -0.5 q2 -0.5 4.5 -2 q2.5 -1.5 3 -5.5 q0.5 -4 0.5 -12 q0 -8 -1 -13 ZM302 64 q23 0 36.5 14.5 q13.5 14.5 13.5 33.5 q0 17 -11 30.5 q-11 13.5 -28 16.5 q-7 -32 -21 -66 q-4 -9 -12 -25 q8 -4 22 -4 Z" /><glyph glyph-name="uniF273" unicode="&#xf273;" d="M224 416 q93 0 158.5 -65.5 q65.5 -65.5 65.5 -158.5 q0 -93 -65.5 -158.5 q-65.5 -65.5 -158.5 -65.5 q-93 0 -158.5 65.5 q-65.5 65.5 -65.5 158.5 q0 57 27 108 q-27 20 -27 52 q0 26 19 45 q19 19 45 19 q32 0 52 -27 q51 27 108 27 ZM32 352 q0 -16 13 -26 q19 26 45 45 q-10 13 -26 13 q-14 0 -23 -9 q-9 -9 -9 -23 ZM224 0 q80 0 136 56 q56 56 56 136 q0 80 -56 136 q-56 56 -136 56 q-80 0 -136 -56 q-56 -56 -56 -136 q0 -80 56 -136 q56 -56 136 -56 ZM320 320 q-54 -130 -72 -152 q-8 -10 -38 -36 q-30 -26 -56 -47 l-26 -21 q54 132 72 152 q8 9 38 35 q30 26 56 47 l26 22 Z" /><glyph glyph-name="uniF274" unicode="&#xf274;" d="M0 32 l0 64 l64 0 l0 -64 l-64 0 ZM96 32 l0 128 l64 0 l0 -128 l-64 0 ZM192 32 l0 224 l64 0 l0 -224 l-64 0 ZM288 32 l0 320 l64 0 l0 -320 l-64 0 Z" /><glyph glyph-name="uniF275" unicode="&#xf275;" d="M65.5 350.5 q65.5 65.5 158.5 65.5 q93 0 158.5 -65.5 q65.5 -65.5 65.5 -158.5 q0 -93 -65.5 -158.5 q-65.5 -65.5 -158.5 -65.5 q-93 0 -158.5 65.5 q-65.5 65.5 -65.5 158.5 q0 93 65.5 158.5 ZM224 0 q80 0 136 56 q56 56 56 136 q0 80 -56 136 q-56 56 -136 56 l0 -384 Z" /><glyph glyph-name="uniF276" unicode="&#xf276;" d="M325 322 q6 -13 3 -15 q-2 -2 -6.5 -1 q-4.5 1 -6.5 6 q-1 3 -1 6 l-1 3 l-3 0 q-6 -2 -6 4 q1 2 5 4 q0 1 -1 2 q-1 6 3 5 q8 -2 14 -14 ZM344 277 l0 0 ZM403 251 l0 0 ZM65.5 350.5 q65.5 65.5 158.5 65.5 q93 0 158.5 -65.5 q65.5 -65.5 65.5 -158.5 q0 -93 -65.5 -158.5 q-65.5 -65.5 -158.5 -65.5 q-93 0 -158.5 65.5 q-65.5 65.5 -65.5 158.5 q0 93 65.5 158.5 ZM141 19 l8 -4 q6 -2 10 -3 q19 -7 43 -10 q45 -5 83 8 q27 9 43 20 q3 2 6 12 q3 10 4 12 q3 6 3.5 22.5 q0.5 16.5 8.5 24.5 q5 6 6 11 q1 5 -0.5 11.5 q-1.5 6.5 -1.5 11.5 q0 3 3 13 q3 10 1 16 q0 2 -4 0.5 q-4 -1.5 -5 0.5 q-2 3 -7.5 3.5 q-5.5 0.5 -12 -0.5 q-6.5 -1 -8.5 -1 q-12 2 -33 23 q-3 3 1 26 q1 3 2 14 q1 11 4.5 16.5 q3.5 5.5 12.5 7.5 q3 1 5.5 5.5 q2.5 4.5 4.5 5.5 q3 1 7.5 2 q4.5 1 7.5 2 q5 1 13.5 -0.5 q8.5 -1.5 12.5 -1.5 q7 0 22 -11 q3 -3 6.5 -3.5 q3.5 -0.5 8 -0.5 q4.5 0 7.5 -1 q4 1 -2 8 q-3 2 -8 2 q-9 2 -20 14.5 q-11 12.5 -16 15.5 q-7 4 -11 0 l1 -12 q0 -1 -13 -5 q-9 -2 -17 10 q-5 9 2 12 l3 0 q2 1 4 1.5 q2 0.5 5 1.5 q3 1 5 2 q2 1 4 2.5 q2 1.5 3 3.5 q1 2 0 4 q-1 2 -1 7 q-1 6 -4 7 q-4 1 -7.5 4 q-3.5 3 -7.5 4 q-5 1 -5 14 q0 7 5 7 q2 0 4 0 q-25 16 -57 24 q-4 -12 -8 -12 q-7 -2 -9 -3 q-2 -2 -5 -6.5 q-3 -4.5 -5 -6.5 q-2 -2 -4.5 -3.5 q-2.5 -1.5 -5 1 q-2.5 2.5 -5.5 8.5 q-2 6 0.5 15 q2.5 9 1.5 13 l-6 0 l-3 0 q7 -14 -8 -19 q-4 0 -8.5 2.5 q-4.5 2.5 -8.5 1.5 q-2 0 -5.5 1.5 q-3.5 1.5 -5.5 0.5 q-13 -6 -14 -12 q-2 -9 3 -10.5 q5 -1.5 11 4.5 q14 14 25 6 q5 -4 5 -14 q0 -4 -0.5 -7 q-0.5 -3 -2.5 -6.5 q-2 -3.5 -6 -2.5 q-1 0 -3.5 1.5 q-2.5 1.5 -3.5 2 q-1 0.5 -4 -0.5 q-2 -2 -29 -9 q-6 -1 -14.5 -4.5 q-8.5 -3.5 -10.5 -4.5 q-11 -4 -12 -12 q0 -14 -3 -15 q-2 -1 -4.5 4.5 q-2.5 5.5 -7 11 q-4.5 5.5 -10.5 4.5 q-10 -1 -19 -9.5 q-9 -8.5 -6 -18.5 q1 -2 7.5 -3.5 q6.5 -1.5 8 -3 q1.5 -1.5 -5.5 -7.5 q-1 -2 -0.5 -5 q0.5 -3 1.5 -8.5 q1 -5.5 1 -6.5 q1 -7 8 -11 q7 -4 13 1 q5 5 14 2 q39 -21 45 -27 q2 -2 7.5 -14 q5.5 -12 9.5 -14 q1 -1 11.5 -5 q10.5 -4 14.5 -9 q4 -6 0.5 -12.5 q-3.5 -6.5 -8.5 -10.5 q-2 -1 -8 -14 q-6 -13 -8 -15 q-2 -3 -16 -7 q-1 0 -3 -2.5 q-2 -2.5 -3.5 -5 q-1.5 -2.5 -2.5 -3.5 q-2 -2 -7 -9 q-5 -7 -10 -10 q-23 -16 -18 -44 q3 -12 11 -16 ZM100 46 l2 -2 q7 -6 23 -16 q-25 25 -21 78 l3 24 q1 2 -1.5 5.5 q-2.5 3.5 -2.5 5.5 q0 7 -4 9 q-2 2 -4 4 q-9 9 -12 17 q-8 17 10 43 q5 8 -2 19 q-7 11 -8 13 q0 3 -3.5 6 q-3.5 3 -2.5 6 q1 5 -4 6 q-3 2 -5 3 q-7 4 -6 13.5 q1 9.5 -1 12.5 q-32 -53 -27.5 -115 q4.5 -62 43.5 -109 l1 -1 l0 -1 l1 0 q6 -8 9 -11 q2 -2 5.5 -5 q3.5 -3 4.5 -4 l2 -1 Z" /><glyph glyph-name="uniF277" unicode="&#xf277;" d="M55 332.5 q55 83.5 105 83.5 q50 0 105 -83.5 q55 -83.5 55 -173.5 q0 -91 -43.5 -141 q-43.5 -50 -116.5 -50 q-73 0 -116.5 50 q-43.5 50 -43.5 141 q0 90 55 173.5 Z" /><glyph glyph-name="uniF278" unicode="&#xf278;" d="M160 164 l0 -68 l64 0 l0 -64 l-64 0 l0 -64 l-64 0 l0 64 l-64 0 l0 64 l64 0 l0 68 q-42 11 -69 45.5 q-27 34.5 -27 78.5 q0 53 37.5 90.5 q37.5 37.5 90.5 37.5 q53 0 90.5 -37.5 q37.5 -37.5 37.5 -90.5 q0 -44 -27 -78.5 q-27 -34.5 -69 -45.5 ZM71.5 231.5 q23.5 -23.5 56.5 -23.5 q33 0 56.5 23.5 q23.5 23.5 23.5 56.5 q0 33 -23.5 56.5 q-23.5 23.5 -56.5 23.5 q-33 0 -56.5 -23.5 q-23.5 -23.5 -23.5 -56.5 q0 -33 23.5 -56.5 Z" /><glyph glyph-name="uniF279" unicode="&#xf279;" d="M362 266 q12 2 22 6 q0 -18 -9 -36 q-27 -49 -76.5 -79.5 q-49.5 -30.5 -104.5 -4.5 q-73 35 -117 24 q-1 0 -1 0 l-2 -1 q-15 -5 -26 -1 l0 197 q0 12 9.5 22 q9.5 10 23.5 13 q99 18 148 -74 q43 -81 133 -66 ZM24 416 q8 0 8 -8 l0 -432 q0 -8 -8 -8 l-16 0 q-8 0 -8 8 l0 432 q0 8 8 8 l16 0 Z" /><glyph glyph-name="uniF27A" unicode="&#xf27a;" d="M78 299 l0 0 ZM128 282 q0 -41 -37 -58 q-5 -3 -8 -5.5 q-3 -2.5 -3 -4.5 l0 -1 q16 -200 16 -213 q0 -15 -9 -24 q-8 -8 -23 -8 l0 0 q-14 0 -22 8 q-10 10 -10 24 l16 213 q0 6 -11 11 q-37 17 -37 58 q0 15 2.5 34 q2.5 19 5.5 32.5 q3 13.5 8.5 36 q5.5 22.5 7.5 31.5 l8 0 l0 -117 q0 -11 9 -11 q8 0 10 10 l0 1 l9 117 l8 0 l10 -117 l0 -1 q2 -10 9 -10 q9 0 9 11 l0 117 l8 0 q24 -107 24 -134 Z" /><glyph glyph-name="uniF27B" unicode="&#xf27b;" d="M314 416 q6 0 6 -6 l0 -84 q0 -6 -6 -6 l-52 0 q-6 0 -6 6 l0 14 q-12 10 -22 7 q-18 -5 -30 -25 q-6 -10 -6 -66 l8 -2 q7 -1 7 -9 l0 -70 q0 -42 2.5 -92.5 q2.5 -50.5 5.5 -79.5 l3 -29 q0 -6 -6 -6 l-84 0 q-6 0 -6 6 q11 106 11 201 l0 70 q0 7 7 9 l7 2 q0 32 -4.5 47 q-4.5 15 -17.5 27 q-23 21 -63 17 q-14 -1 -31.5 -17 q-17.5 -16 -26.5 -28 q-8 -6 -10 11 q1 16 20 41.5 q19 25.5 52 39.5 q52 22 102 22 q22 0 38 -3 q5 -1 13 -9.5 q8 -8.5 13 -8.5 q9 0 18 9 l0 6 q0 6 6 6 l52 0 Z" /><glyph glyph-name="uniF27C" unicode="&#xf27c;" d="M65.5 350.5 q65.5 65.5 158.5 65.5 q93 0 158.5 -65.5 q65.5 -65.5 65.5 -158.5 q0 -93 -65.5 -158.5 q-65.5 -65.5 -158.5 -65.5 q-93 0 -158.5 65.5 q-65.5 65.5 -65.5 158.5 q0 93 65.5 158.5 ZM402 264 q-16 38 -42 64 q-26 26 -65 42 l-19 -61 q21 -9 38 -26 q19 -19 27 -38 l61 19 ZM156 124 q28 -28 68 -28 q40 0 68 28 q28 28 28 68 q0 40 -28 68 q-28 28 -68 28 q-40 0 -68 -28 q-28 -28 -28 -68 q0 -40 28 -68 ZM152 370 q-38 -16 -64 -42 q-26 -26 -42 -65 l61 -19 q9 21 26 38 q19 19 38 27 l-19 61 ZM46 120 q16 -38 42 -64 q26 -26 65 -42 l19 61 q-21 9 -38 26 q-19 19 -27 38 l-61 -19 ZM296 14 q38 16 64 42 q26 26 42 65 l-61 19 q-9 -21 -26 -38 q-19 -19 -38 -27 l19 -61 Z" /><glyph glyph-name="uniF27D" unicode="&#xf27d;" d="M32 192 l256 0 l-128 -224 l-128 224 ZM307 275 q13 -8 13 -23 q0 -12 -9 -20 q-9 -8 -21 -8 l-4 0 l-252 0 l-4 0 q-12 0 -21 8.5 q-9 8.5 -9 19.5 q0 14 14 23 l1 1 l1 1 q7 5 8 12 l0 1 q-2 6 -2 18 q0 32 22 54 q22 22 54 22 q9 0 23 -4 l-4 -31 q1 7 3.5 14 q2.5 7 5.5 11 l2 4 q30 38 77 38 q40 0 68 -28 q28 -28 28 -68 q0 -15 -5 -30 l0 -1 q0 -6 8 -12 l1 -1 q1 -1 2 -1 Z" /><glyph glyph-name="uniF295" unicode="&#xf295;" d="M222 80 l-2 -13 l53 -58 l-18 -27 l-74 9 l-18 -55 l-19 55 l-73 -9 l-18 27 l53 58 l-2 13 l-104 -35 l3 53 l114 103 q26 173 28 192 q2 18 6.5 31.5 q4.5 13.5 8.5 18.5 l3 5 q13 -15 18 -55 l28 -192 l114 -103 l3 -53 l-104 35 Z" /><glyph glyph-name="uniF296" unicode="&#xf296;" d="M144 147 q48 -29 48 -83 q0 -40 -28 -68 q-28 -28 -68 -28 q-40 0 -68 28 q-28 28 -28 68 q0 56 48 84 q7 16 12 41 q0 2 5.5 5.5 q5.5 3.5 5.5 6.5 l0 20 q0 3 -3.5 6.5 q-3.5 3.5 -3.5 4.5 l0 8 l0 8 q0 4 1 6 l1 1 l0 1 l2 1 l4 4 l0 1 q3 3 3 6 l1 4 q0 4 0 5 q0 4 -4 8 l-1 1 l-4 4 l-1 1 q-3 3 -3 8 l0 7 q0 5 4 9 l5 5 q4 4 4 6 l0 24 q0 4 -4 8 l0 1 l-4 4 l-1 1 q-3 3 -3 8 l0 18 q0 19 9 23 q9 3 23 3 q16 0 23.5 -8 q7.5 -8 8.5 -28 q7 -81 9 -143 l7 -90 ZM73 9 q9 -9 23 -9 q14 0 23 9 q9 9 9 23 q0 14 -9 23 q-9 9 -23 9 q-14 0 -23 -9 q-9 -9 -9 -23 q0 -14 9 -23 Z" /><glyph glyph-name="uniF297" unicode="&#xf297;" d="M62 416 q2 0 2 -6 l0 -412 q0 -12 -7 -21 q-7 -9 -17 -9 l0 0 q-10 0 -17 9 q-7 9 -7 21 q0 5 7.5 54 q7.5 49 8.5 76 q0 14 -16 32 q-16 18 -16 38 q0 149 54 214 q4 4 8 4 Z" /><glyph glyph-name="uniF298" unicode="&#xf298;" d="M46 349 q18 -8 18 -29 q0 -21 -18 -29 l0 -275 q0 -16 -16 -16 q-16 0 -16 16 l0 278 q-14 10 -14 26 q0 16 14 26 l0 22 q0 16 16 16 q16 0 16 -16 l0 -19 ZM142 155 q15 -10 15 -27 q0 -17 -15 -27 l0 -85 q0 -16 -16 -16 q-16 0 -16 16 l0 84 q-17 8 -17 28 q0 20 17 28 l0 212 q0 16 16 16 q16 0 16 -16 l0 -213 ZM238 285 q16 -10 16 -28 q0 -18 -16 -28 l0 -213 q0 -16 -16 -16 q-16 0 -16 16 l0 213 q-16 10 -16 28 q0 18 16 28 l0 83 q0 16 16 16 q16 0 16 -16 l0 -83 ZM334 93 q16 -10 16 -28 q0 -18 -16 -28 l0 -21 q0 -16 -16 -16 q-16 0 -16 16 l0 21 q-16 10 -16 28 q0 18 16 28 l0 275 q0 16 16 16 q16 0 16 -16 l0 -275 Z" /><glyph glyph-name="uniF299" unicode="&#xf299;" d="M37.5 379.5 q37.5 36.5 90.5 36.5 q53 0 90.5 -36.5 q37.5 -36.5 37.5 -87.5 q0 -9 -1 -14 q-1 -3 -2 -8 q-1 -5 -1 -8 l0 -2 q-6 -21 -28.5 -66.5 q-22.5 -45.5 -30.5 -100.5 l0 -1 q-3 -12 -20 -12 l-90 0 q-17 0 -20 12 l0 1 q-8 55 -30.5 100.5 q-22.5 45.5 -28.5 66.5 l0 2 q0 3 -1 8 q-1 5 -2 8 q-1 5 -1 14 q0 51 37.5 87.5 ZM190 52 l0 -1 q-3 -5 -3 -7 q0 -4 3 -8 l0 -1 q2 -4 2 -5 q0 -2 -2 -6 l0 -1 q-3 -4 -3 -7 q0 -4 3 -8 l0 -1 q2 -4 2 -6 q0 -8 -10 -11 l-1 0 q-3 0 -9.5 -1 q-6.5 -1 -9.5 -2 l-2 0 q-8 -1 -14 -9 q-8 -10 -18 -10 q-10 0 -19 11 q-5 7 -13 8 l-2 0 q-3 1 -9.5 2 q-6.5 1 -9.5 1 l-1 0 q-10 3 -10 11 q0 2 2 6 l0 1 q3 3 3 7 q0 3 -3 8 l0 1 q-2 4 -2 6 q0 1 2 5 l0 1 q3 4 3 8 q0 2 -3 7 l0 1 q-2 4 -2 6 l0 1 q0 2 0 3 q0 1 2 1.5 q2 0.5 5 0.5 l114 0 q7 -2 7 -6 q0 -2 -2 -6 Z" /><glyph glyph-name="uniF29A" unicode="&#xf29a;" d="M208 288 q-64 0 -64 64 q0 64 64 64 q64 0 64 -64 q0 -64 -64 -64 ZM48 144 q-48 0 -48 48 q0 48 48 48 q48 0 48 -48 q0 -48 -48 -48 ZM320 296 q-8 0 -8 8 q0 8 8 8 q8 0 8 -8 q0 -8 -8 -8 ZM96 355 q21 0 36 -15 q15 -15 15 -36 q0 -21 -15 -36 q-15 -15 -36 -15 q-21 0 -36 15 q-15 15 -15 36 q0 21 15 36 q15 15 36 15 ZM368 176 q-16 0 -16 16 q0 16 16 16 q16 0 16 -16 q0 -16 -16 -16 ZM321 55 q-24 0 -24 24 q0 24 24 24 q24 0 24 -24 q0 -24 -24 -24 ZM208 0 q-32 0 -32 32 q0 32 32 32 q32 0 32 -32 q0 -32 -32 -32 ZM96 40 q-40 0 -40 40 q0 40 40 40 q40 0 40 -40 q0 -40 -40 -40 Z" /></font>
</defs>
</svg>
